<?xml version="1.0" encoding="UTF-8"?>
<svg version="1.1" xmlns="http://www.w3.org/2000/svg" width="2400" height="1260">
<path d="M0 0 C792 0 1584 0 2400 0 C2400 415.8 2400 831.6 2400 1260 C1608 1260 816 1260 0 1260 C0 844.2 0 428.4 0 0 Z " fill="#0E100F" transform="translate(0,0)"/>
<path d="M0 0 C0.84961807 -0.00708481 1.69923615 -0.01416962 2.57460022 -0.02146912 C3.96798866 -0.01775299 3.96798866 -0.01775299 5.38952637 -0.01396179 C6.3702562 -0.01907272 7.35098602 -0.02418365 8.36143494 -0.02944946 C11.60979276 -0.04337274 14.85793909 -0.04238679 18.10632324 -0.04008484 C20.35929443 -0.04396992 22.61226488 -0.04830419 24.86523438 -0.05307007 C29.58966445 -0.06053792 34.31401979 -0.06023664 39.03845215 -0.05497742 C45.10169371 -0.04917839 51.16463025 -0.06612171 57.22782135 -0.08932209 C61.88085731 -0.10403092 66.5338193 -0.10493508 71.18687439 -0.10181236 C73.42285263 -0.10232689 75.65883487 -0.10758911 77.89479065 -0.11762428 C81.01693747 -0.12991771 84.1384834 -0.12323987 87.26062012 -0.11161804 C88.18954575 -0.11926178 89.11847137 -0.12690552 90.07554626 -0.13478088 C91.34997337 -0.12425941 91.34997337 -0.12425941 92.65014648 -0.11352539 C93.38829338 -0.11369313 94.12644028 -0.11386087 94.88695526 -0.1140337 C97.46939513 0.38527439 98.22125172 1.1869069 99.82507324 3.26069641 C100.20112073 5.69451332 100.20112073 5.69451332 100.20259666 8.6502533 C100.21041991 9.77602972 100.21824315 10.90180614 100.22630346 12.06169701 C100.21626521 13.92484771 100.21626521 13.92484771 100.20602417 15.82563782 C100.21070414 17.14098825 100.21538411 18.45633869 100.2202059 19.81154823 C100.23276907 23.47036266 100.22652156 27.12894338 100.21724725 30.78775883 C100.21047874 34.73055699 100.22092703 38.67331405 100.22918701 42.61610413 C100.24255012 50.34310607 100.23963517 58.07002075 100.23094909 65.79702616 C100.22418306 72.07506433 100.22325113 78.353078 100.22652054 84.63111877 C100.22698024 85.52351246 100.22743994 86.41590614 100.22791357 87.33534205 C100.22887271 89.14803426 100.22984535 90.96072647 100.23083134 92.77341866 C100.23939278 109.78431507 100.22953929 126.79516303 100.21343024 143.80605149 C100.20002637 158.41270219 100.20235425 173.01928138 100.21618652 187.62593079 C100.23222903 204.57457597 100.23856874 221.52317866 100.22934973 238.47183037 C100.22839405 240.27797825 100.22745094 242.08412615 100.22652054 243.89027405 C100.22605771 244.77901045 100.22559489 245.66774686 100.22511803 246.58341467 C100.22252415 252.85632509 100.2269077 259.12920862 100.2339592 265.40211487 C100.24235965 273.04324584 100.24012481 280.68428432 100.22411697 288.32540464 C100.21621456 292.22651226 100.21317596 296.12746549 100.22306442 300.02857208 C100.23360601 304.25110173 100.22104774 308.4732391 100.20602417 312.695755 C100.21271634 313.93785547 100.2194085 315.17995594 100.22630346 316.45969582 C100.21848022 317.58547224 100.21065697 318.71124866 100.20259666 319.87113953 C100.20186608 321.33423081 100.20186608 321.33423081 100.20112073 322.8268795 C99.82507324 325.26069641 99.82507324 325.26069641 98.49555361 327.07331371 C95.76308847 329.01555852 93.1463589 328.65080086 89.84680176 328.66474915 C88.78776642 328.67504402 88.78776642 328.67504402 87.70733643 328.68554688 C85.37267972 328.70385331 83.03869259 328.69997204 80.70397949 328.69429016 C79.08116944 328.69885032 77.45836133 328.7041554 75.83555603 328.71017456 C72.43346311 328.71911332 69.03160484 328.71667418 65.6295166 328.70674133 C61.27011101 328.6952537 56.91151566 328.71545541 52.55221653 328.74465847 C49.20044307 328.76300745 45.84886422 328.76273061 42.49705315 328.75702095 C40.88989056 328.75686756 39.28271492 328.76292678 37.67560005 328.77531242 C35.42746345 328.79019597 33.18082894 328.77956675 30.93273926 328.7624054 C29.01438011 328.76215614 29.01438011 328.76215614 27.05726624 328.76190186 C23.82507324 328.26069641 23.82507324 328.26069641 21.40922546 326.47000122 C19.00287096 323.11402916 19.33059117 319.74386416 19.43444824 315.77632141 C19.44010803 314.96072754 19.44576782 314.14513367 19.45159912 313.30482483 C19.47394597 310.70617869 19.52413703 308.10892399 19.57507324 305.51069641 C19.59514053 303.74639344 19.6133909 301.98206881 19.62976074 300.21772766 C19.67380495 295.89818314 19.74281903 291.57967548 19.82507324 287.26069641 C10.48935591 287.14492728 1.15388502 287.05604514 -8.18239307 287.00163555 C-12.51748287 286.97552356 -16.85208218 286.94009731 -21.18688965 286.88349915 C-25.36903906 286.82923493 -29.55071629 286.79928795 -33.73319054 286.7863102 C-35.33007939 286.7770601 -36.92694193 286.75899663 -38.52363014 286.73204613 C-40.75798316 286.69582702 -42.990377 286.69074761 -45.22497559 286.69306946 C-46.49738602 286.6819664 -47.76979645 286.67086334 -49.08076477 286.65942383 C-52.33279114 286.94341813 -52.33279114 286.94341813 -54.0164032 289.58007812 C-55.45940008 292.9189173 -56.88368323 296.25529939 -58.20617676 299.64350891 C-58.77500547 301.0719667 -59.34402147 302.50034992 -59.91320801 303.92866516 C-60.79807072 306.16371904 -61.68042929 308.39970645 -62.5592041 310.63716125 C-63.41400999 312.80866313 -64.27825755 314.97621926 -65.14367676 317.14350891 C-65.40314087 317.81230072 -65.66260498 318.48109253 -65.92993164 319.17015076 C-68.32036207 325.13093808 -68.32036207 325.13093808 -71.17492676 327.26069641 C-74.64955871 328.41890706 -77.39454597 328.40905758 -81.06140137 328.43769836 C-81.75767136 328.44426956 -82.45394135 328.45084076 -83.17131042 328.45761108 C-85.47329824 328.47730785 -87.77522104 328.48899648 -90.07727051 328.49897766 C-90.86387117 328.50305319 -91.65047184 328.50712872 -92.46090889 328.51132774 C-96.62168235 328.53216971 -100.78242297 328.54648138 -104.9432373 328.55586243 C-109.24203578 328.56694311 -113.54031893 328.6013669 -117.8389349 328.64103413 C-121.14434277 328.66715899 -124.44962682 328.67555038 -127.75512886 328.67914391 C-129.33998674 328.684018 -130.92483879 328.69565543 -132.50959587 328.7141819 C-134.72650163 328.73849445 -136.94205975 328.73762407 -139.15905762 328.73066711 C-140.42019882 328.73653336 -141.68134003 328.7423996 -142.98069763 328.7484436 C-146.17492676 328.26069641 -146.17492676 328.26069641 -148.61595154 326.43531799 C-150.17492676 324.26069641 -150.17492676 324.26069641 -150.13439941 320.9967804 C-149.07926007 316.88818054 -147.63837571 313.3019309 -145.82336426 309.48335266 C-145.4862442 308.7543425 -145.14912415 308.02533234 -144.80178833 307.27423096 C-143.72641795 304.95311258 -142.63872475 302.63804195 -141.54992676 300.32319641 C-140.13801473 297.29466775 -138.73081926 294.26395466 -137.32336426 291.23335266 C-136.97177246 290.47850082 -136.62018066 289.72364899 -136.25793457 288.94592285 C-133.70911693 283.4594293 -131.25647062 277.93671496 -128.84805298 272.3874054 C-125.50200832 264.6858182 -122.03790845 257.03785061 -118.58181763 249.38517761 C-112.54435401 236.01497242 -106.55043159 222.62888871 -100.67077637 209.18843079 C-97.82199123 202.69032006 -94.86832838 196.25228228 -91.84289551 189.83491516 C-87.26351474 180.02195637 -82.9439549 170.09280466 -78.7130127 160.1254425 C-75.56871904 152.71879612 -72.34653844 145.44443285 -68.64367676 138.29585266 C-66.4338843 133.72934006 -64.56363432 129.02929259 -62.70959473 124.30854797 C-61.14265455 120.3758718 -59.36588915 116.81383022 -57.19787598 113.16279602 C-55.57095346 110.13765202 -54.39350488 106.95078701 -53.15344238 103.75190735 C-51.70700201 100.06940296 -50.06838684 96.48354145 -48.42492676 92.88569641 C-44.31647239 83.82419253 -40.26791028 74.73683896 -36.23214722 65.64280701 C-18.81364675 26.39574726 -18.81364675 26.39574726 -11.17492676 10.26069641 C-10.77402832 9.39315735 -10.37312988 8.52561829 -9.96008301 7.63179016 C-7.56459734 2.57867133 -5.78380127 0.0160854 0 0 Z " fill="#FDFBE1" transform="translate(1303.1749267578125,463.7393035888672)"/>
<path d="M0 0 C1.04728271 0.00491455 2.09456543 0.0098291 3.17358398 0.01489258 C22.55456667 0.30522765 40.28649724 5.2946231 56.3125 16.3125 C56.88621338 16.68842285 57.45992676 17.0643457 58.05102539 17.45166016 C62.3754706 20.36988205 65.58535341 23.55344933 68.75 27.6875 C69.21736572 28.29182861 69.68473145 28.89615723 70.16625977 29.51879883 C77.37093797 39.10408902 82.83224386 49.83106674 86.3125 61.3125 C86.70695312 62.56740234 86.70695312 62.56740234 87.109375 63.84765625 C91.20288985 78.36292575 94.73801028 97.24377867 92.3125 112.3125 C90.72671509 114.47476196 90.72671509 114.47476196 88.3125 116.3125 C85.07357788 116.80697632 85.07357788 116.80697632 81.18896484 116.79833984 C80.47958267 116.80213654 79.7702005 116.80593323 79.0393219 116.80984497 C76.70024055 116.81724018 74.36240793 116.79588844 72.0234375 116.7734375 C70.39726914 116.77105284 68.771098 116.7701478 67.14492798 116.7706604 C63.74032293 116.76753444 60.33613961 116.75098229 56.93164062 116.72412109 C52.56216817 116.69008728 48.19315783 116.68249412 43.82356834 116.68401146 C40.46759611 116.68346841 37.11172541 116.67251263 33.7557869 116.65800858 C32.14419956 116.65163437 30.5326007 116.64770023 28.92100143 116.64622116 C26.67288224 116.64189771 24.42525915 116.62441973 22.17724609 116.60302734 C20.89691498 116.59540375 19.61658386 116.58778015 18.29745483 116.57992554 C15.3125 116.3125 15.3125 116.3125 13.3125 114.3125 C12.87353516 112.31640625 12.87353516 112.31640625 12.6015625 109.875 C12.43938232 108.53888672 12.43938232 108.53888672 12.27392578 107.17578125 C12.10739502 105.75845703 12.10739502 105.75845703 11.9375 104.3125 C10.14824302 89.64043922 10.14824302 89.64043922 1.3125 78.3125 C-4.20558251 74.40946603 -10.18278073 74.55068603 -16.6875 75.3125 C-19.93955146 76.27772075 -22.75392119 77.6227586 -25.6875 79.3125 C-26.71875 79.89 -27.75 80.4675 -28.8125 81.0625 C-54.15409607 100.89505344 -67.64055524 143.97375288 -72.6875 174.3125 C-72.86410156 175.37041748 -73.04070312 176.42833496 -73.22265625 177.51831055 C-74.63990219 186.91950089 -74.99854324 196.10062805 -74.94824219 205.59301758 C-74.93746328 208.00822768 -74.94824012 210.42270198 -74.9609375 212.83789062 C-74.97453039 228.02445419 -74.45023858 244.57133064 -63.6875 256.3125 C-57.01849955 262.34635755 -51.41914701 262.83890627 -42.73828125 262.625 C-37.48095349 262.33312892 -33.26887867 260.88450206 -28.6875 258.3125 C-27.93210937 257.9 -27.17671875 257.4875 -26.3984375 257.0625 C-13.16070797 249.05617561 -4.81357895 234.99221807 -0.6875 220.3125 C-0.6875 218.9925 -0.6875 217.6725 -0.6875 216.3125 C-1.33823486 216.29268066 -1.98896973 216.27286133 -2.65942383 216.25244141 C-5.60669151 216.15720701 -8.55324885 216.04752182 -11.5 215.9375 C-12.52416016 215.9065625 -13.54832031 215.875625 -14.60351562 215.84375 C-16.07788086 215.78574219 -16.07788086 215.78574219 -17.58203125 215.7265625 C-18.48800049 215.6951416 -19.39396973 215.6637207 -20.32739258 215.63134766 C-22.6875 215.3125 -22.6875 215.3125 -25.6875 213.3125 C-26.13628163 207.67800856 -25.34967421 202.65602465 -24.078125 197.18359375 C-23.8260025 196.05534935 -23.8260025 196.05534935 -23.56878662 194.90431213 C-23.21293291 193.31934037 -22.85302755 191.7352733 -22.48925781 190.15209961 C-21.94492854 187.78234046 -21.41272681 185.41012879 -20.8828125 183.03710938 C-19.85246567 178.45378681 -18.78234219 173.88082059 -17.6875 169.3125 C-17.5129126 168.57992981 -17.3383252 167.84735962 -17.15844727 167.09259033 C-16.65528434 165.00739639 -16.13574204 162.92709965 -15.609375 160.84765625 C-15.3112793 159.65664307 -15.01318359 158.46562988 -14.70605469 157.23852539 C-13.66971834 154.2614182 -13.13058368 153.19376369 -10.6875 151.3125 C-8.45544529 150.93218327 -8.45544529 150.93218327 -5.79798889 150.92481995 C-4.78994705 150.91491531 -3.78190521 150.90501068 -2.74331665 150.89480591 C-1.63829803 150.89930756 -0.53327942 150.9038092 0.60522461 150.90844727 C1.76966599 150.90158401 2.93410736 150.89472076 4.13383484 150.88764954 C7.99429416 150.86930418 11.85435007 150.87323023 15.71484375 150.87890625 C17.71524277 150.87549964 19.71564198 150.87208603 21.71603876 150.86755317 C28.00694491 150.85350024 34.2977153 150.85507533 40.58862305 150.86645508 C47.07858734 150.87793549 53.56813836 150.86386412 60.05804819 150.8370586 C65.63012921 150.81490574 71.20208047 150.80826329 76.77420241 150.81413502 C80.10217304 150.81750708 83.42981979 150.81337006 86.75776482 150.79788399 C90.46895183 150.78304909 94.17922301 150.79359719 97.89038086 150.81079102 C98.99337524 150.80112305 100.09636963 150.79145508 101.23278809 150.78149414 C102.74908058 150.79624535 102.74908058 150.79624535 104.29600525 150.81129456 C105.6120117 150.81160848 105.6120117 150.81160848 106.95460415 150.81192875 C110.10350667 151.48042735 111.33068989 152.83058223 113.3125 155.3125 C113.40625 157.72387695 113.40625 157.72387695 112.8125 160.48828125 C112.59335937 161.54998535 112.37421875 162.61168945 112.1484375 163.70556641 C111.87257813 164.89585449 111.59671875 166.08614258 111.3125 167.3125 C111.01265666 168.65144845 110.71319228 169.9904818 110.4140625 171.32958984 C109.41705108 175.72867407 108.36691257 180.11438597 107.3125 184.5 C106.77614889 186.74681739 106.24093157 188.99389846 105.70678711 191.24124146 C105.36406509 192.67785016 105.01858098 194.1138031 104.67016602 195.54904175 C103.78724905 199.20328246 103.03017176 202.85013235 102.375 206.55078125 C101.1216926 210.98804238 100.14328049 212.73671761 96.3125 215.3125 C93.20039813 216.01335841 90.1818329 216.10239819 87 216.125 C86.16404297 216.15013672 85.32808594 216.17527344 84.46679688 216.20117188 C82.41586591 216.2597699 80.36413407 216.28906493 78.3125 216.3125 C78.13871826 216.84109619 77.96493652 217.36969238 77.78588867 217.91430664 C71.37715826 237.28792185 64.77116384 256.96425647 54.05078125 274.44140625 C52.61285724 276.81640433 51.30185736 279.20475717 49.99609375 281.65234375 C47.44523933 286.26518281 44.42989139 290.26963336 41.0625 294.3125 C40.48749756 295.00746582 39.91249512 295.70243164 39.32006836 296.41845703 C18.09771792 321.81642586 -9.25675683 333.78831733 -41.85009766 337.08544922 C-66.76333269 339.07902249 -92.23419437 336.55885467 -112.20751953 320.05664062 C-131.17213447 303.78616318 -143.27947353 283.70112423 -148.6875 259.3125 C-148.97367188 258.10464844 -149.25984375 256.89679688 -149.5546875 255.65234375 C-158.33778083 217.21585437 -151.67801863 174.86329476 -141.6875 137.3125 C-141.45981934 136.43819336 -141.23213867 135.56388672 -140.99755859 134.66308594 C-128.80516309 88.56362968 -102.8169895 41.54781829 -60.90039062 16.58789062 C-48.75915796 9.59033994 -36.37742286 5.2225784 -22.6875 2.3125 C-21.82761475 2.12631104 -20.96772949 1.94012207 -20.08178711 1.74829102 C-13.34953686 0.39631041 -6.85909833 -0.03851858 0 0 Z " fill="#FDFBE1" transform="translate(896.6875,458.6875)"/>
<path d="M0 0 C1.94097313 -0.01902626 1.94097313 -0.01902626 3.92115784 -0.03843689 C5.33928587 -0.03638055 6.7574128 -0.03338849 8.17553711 -0.02954102 C9.65213763 -0.03411309 11.12873603 -0.03942168 12.60533142 -0.04542542 C15.71662962 -0.05437562 18.82767172 -0.05192662 21.93896484 -0.04199219 C25.074006 -0.03293786 28.20829361 -0.03938419 31.34326172 -0.0625 C69.3208389 -0.34128507 108.51837406 2.18011194 137.25366211 29.92749023 C159.12539484 52.56257631 161.26111237 81.79728118 160.91772461 111.70483398 C160.49224874 135.62159838 154.08680937 158.96199222 143.64038086 180.40405273 C143.08479492 181.54487305 142.52920898 182.68569336 141.95678711 183.86108398 C137.94143499 191.67850163 133.14175586 198.56474334 127.64038086 205.40405273 C127.21740723 205.93530762 126.79443359 206.4665625 126.35864258 207.01391602 C102.11563952 237.30192763 66.54659314 256.04142594 28.05029297 260.71875 C16.18566884 261.85348897 4.23199746 261.51190012 -7.67211914 261.46655273 C-9.97355046 261.46152813 -12.27498284 261.45696692 -14.57641602 261.45288086 C-20.1708405 261.44195038 -25.76522477 261.42528831 -31.35961914 261.40405273 C-31.35961914 262.72405273 -31.35961914 264.04405273 -31.35961914 265.40405273 C-30.6905957 265.65799805 -30.02157227 265.91194336 -29.33227539 266.17358398 C-25.74138831 267.65995643 -22.27044219 269.35302182 -18.79711914 271.09155273 C-18.0983667 271.44096924 -17.39961426 271.79038574 -16.6796875 272.15039062 C-0.37014331 280.39352856 -0.37014331 280.39352856 2.64038086 283.40405273 C2.13724189 291.26343038 0.41061187 298.91215703 -1.26098633 306.59008789 C-1.73757958 308.79273487 -2.19715354 310.99853314 -2.65649414 313.20483398 C-2.96014768 314.61260949 -3.26479929 316.02017016 -3.57055664 317.42749023 C-3.84174316 318.69512207 -4.11292969 319.96275391 -4.39233398 321.26879883 C-5.70430121 325.52126806 -5.70430121 325.52126806 -8.35961914 327.40405273 C-11.44032288 327.77827454 -11.44032288 327.77827454 -15.27783203 327.77636719 C-15.97731461 327.78001785 -16.67679718 327.78366852 -17.3974762 327.78742981 C-19.70932296 327.79553533 -22.02046887 327.78192724 -24.33227539 327.76733398 C-25.93745422 327.76681543 -27.54263369 327.76733294 -29.14781189 327.7688446 C-32.5112354 327.76875489 -35.87441919 327.75832515 -39.23779297 327.74023438 C-43.55459415 327.71752884 -47.87104557 327.71700638 -52.18789005 327.72375202 C-55.50181705 327.72708891 -58.81566391 327.72046755 -62.12957573 327.71062279 C-63.72162901 327.70676701 -65.3136912 327.70562413 -66.90574837 327.70720863 C-69.12760625 327.70757838 -71.34901082 327.69498573 -73.57080078 327.67871094 C-74.83638321 327.67410355 -76.10196564 327.66949615 -77.40589905 327.66474915 C-80.35961914 327.40405273 -80.35961914 327.40405273 -82.35961914 325.40405273 C-82.66158388 316.92365758 -80.40084559 308.60590892 -78.29711914 300.46655273 C-77.65512366 297.89974079 -77.01609817 295.33243941 -76.38305664 292.76342773 C-76.217397 292.09257645 -76.05173737 291.42172516 -75.88105774 290.73054504 C-73.89026874 282.59661985 -72.16327421 274.40676613 -70.42211914 266.21655273 C-67.87847224 254.2900341 -65.23952035 242.39399611 -62.42211914 230.52905273 C-62.25915344 229.84262695 -62.09618774 229.15620117 -61.92828369 228.44897461 C-61.26041463 225.637102 -60.5923292 222.82528098 -59.92373657 220.01358032 C-52.8534112 190.23600947 -46.10772096 160.37797698 -39.50415039 130.49389648 C-38.4565022 125.75549811 -37.40830348 121.0172219 -36.35961914 116.27905273 C-36.09779846 115.09591492 -35.83597778 113.9127771 -35.56622314 112.69378662 C-32.37452903 98.28605476 -29.1138528 83.90600409 -25.58789062 69.57617188 C-23.92569706 62.80987915 -22.37585558 56.03056591 -20.92211914 49.21655273 C-20.07391461 45.27774327 -19.21874728 41.34049389 -18.35961914 37.40405273 C-18.2124646 36.72832214 -18.06531006 36.05259155 -17.91369629 35.35638428 C-16.90358887 30.72884087 -15.8734483 26.10629912 -14.82345581 21.48764038 C-14.47463088 19.94107599 -14.13139877 18.39323873 -13.79397583 16.84414673 C-13.31891866 14.6677699 -12.82406839 12.4967815 -12.32446289 10.32592773 C-12.04207764 9.06361328 -11.75969238 7.80129883 -11.46875 6.50073242 C-9.35757146 0.60634796 -5.90769843 0.02811131 0 0 Z " fill="#FDFBE0" transform="translate(1494.359619140625,463.595947265625)"/>
<path d="M0 0 C0.75539063 0.45761719 1.51078125 0.91523438 2.2890625 1.38671875 C8.96930434 5.81803455 13.44631178 12.53547809 18 19 C18.88751953 20.23943359 18.88751953 20.23943359 19.79296875 21.50390625 C24.54132343 28.71798752 26.80143683 36.74037059 29 45 C29.32226562 46.16144531 29.64453125 47.32289063 29.9765625 48.51953125 C31.91201083 56.57786985 32.33103532 64.42141013 32.4375 72.6875 C32.45981689 73.74001953 32.48213379 74.79253906 32.50512695 75.87695312 C32.502146 76.87017578 32.49916504 77.86339844 32.49609375 78.88671875 C32.49794678 79.77576904 32.4997998 80.66481934 32.50170898 81.58081055 C31.8182925 84.87617502 30.62905275 85.92393314 28 88 C24.99559021 88.48774719 24.99559021 88.48774719 21.44311523 88.4699707 C20.79386078 88.4721611 20.14460632 88.4743515 19.47567749 88.47660828 C17.33612601 88.47891412 15.19796102 88.45269681 13.05859375 88.42578125 C11.56934546 88.42085594 10.08009098 88.41755798 8.59083557 88.41581726 C5.47287153 88.40818303 2.35536749 88.38764004 -0.76245117 88.35668945 C-4.75957873 88.31708066 -8.7564074 88.29907421 -12.75370884 88.28938007 C-16.56631513 88.27940759 -20.37884855 88.25952459 -24.19140625 88.23828125 C-25.28314746 88.23318763 -25.28314746 88.23318763 -26.39694405 88.2279911 C-28.4555541 88.2164137 -30.51397568 88.19789306 -32.57250977 88.17700195 C-33.74403091 88.16715775 -34.91555206 88.15731354 -36.12257385 88.14717102 C-39 88 -39 88 -42 87 C-45.28339441 82.89182948 -45.52310143 78.74797846 -45.875 73.6875 C-46.75276803 64.43216227 -46.75276803 64.43216227 -52 57 C-58.46857994 53.07462243 -64.63100034 53.12514159 -72 54 C-76.62119595 55.53094835 -79.84368903 58.18309631 -82.5 62.25 C-86.09707231 70.78296524 -85.07569648 82.11892944 -82.125 90.6875 C-74.77886221 107.10947561 -61.3034539 119.92529589 -48.61328125 132.296875 C-36.33362439 144.27946547 -25.63768728 156.50571083 -18 172 C-17.36191406 173.15435547 -17.36191406 173.15435547 -16.7109375 174.33203125 C-13.97986034 179.38368624 -12.00590825 184.54858415 -10.25 190 C-9.93373657 190.96039185 -9.93373657 190.96039185 -9.61108398 191.94018555 C-6.63313124 201.61639526 -6.78787221 211.67225067 -6.75976562 221.7121582 C-6.75006395 223.7987463 -6.7189366 225.88434469 -6.6875 227.97070312 C-6.6194124 236.66585601 -7.64416003 244.59700843 -10 253 C-10.29011963 254.10674072 -10.58023926 255.21348145 -10.87915039 256.35375977 C-14.84569715 271.178893 -22.89050818 284.44598278 -34 295 C-34.48726562 295.53109375 -34.97453125 296.0621875 -35.4765625 296.609375 C-51.23543536 313.48854687 -75.45788158 320.94877334 -97.93164062 322.22290039 C-102.0378716 322.36185045 -106.14173218 322.38619016 -110.25 322.375 C-110.97167358 322.37478851 -111.69334717 322.37457703 -112.43688965 322.37435913 C-123.72403703 322.34142241 -134.21906864 321.5210063 -145 318 C-146.19109375 317.61457031 -147.3821875 317.22914063 -148.609375 316.83203125 C-160.24544956 312.68969595 -169.21526227 306.62580333 -178 298 C-178.70125 297.32324219 -179.4025 296.64648438 -180.125 295.94921875 C-196.35667085 279.11520074 -200.07924427 255.80834902 -200.3125 233.3125 C-200.33022461 232.24789551 -200.34794922 231.18329102 -200.36621094 230.08642578 C-200.36524414 229.08466309 -200.36427734 228.08290039 -200.36328125 227.05078125 C-200.36626221 226.15012939 -200.36924316 225.24947754 -200.37231445 224.3215332 C-200 222 -200 222 -198.90911865 220.37817383 C-196.02094518 218.29323003 -193.61179056 218.62593104 -190.08178711 218.62768555 C-189.38230453 218.62403488 -188.68282196 218.62038422 -187.96214294 218.61662292 C-185.65029618 218.6085174 -183.33915027 218.6221255 -181.02734375 218.63671875 C-179.42216492 218.6372373 -177.81698545 218.63671979 -176.21180725 218.63520813 C-172.84838374 218.63529785 -169.48519995 218.64572759 -166.12182617 218.66381836 C-161.80502499 218.6865239 -157.48857357 218.68704636 -153.17172909 218.68030071 C-149.85780209 218.67696383 -146.54395523 218.68358518 -143.23004341 218.69342995 C-141.63799013 218.69728573 -140.04592794 218.6984286 -138.45387077 218.6968441 C-136.23201289 218.69647435 -134.01060832 218.709067 -131.78881836 218.7253418 C-130.52323593 218.72994919 -129.2576535 218.73455658 -127.95372009 218.73930359 C-125 219 -125 219 -123 221 C-122.70554025 224.6751559 -122.58521538 228.31183447 -122.52148438 231.99609375 C-122.32212676 237.86012494 -121.77090953 244.23457574 -117.39672852 248.60009766 C-116 250 -116 250 -116 252 C-112.5032451 253.06014085 -109.2066659 253.1994451 -105.5625 253.25 C-104.45003906 253.27578125 -103.33757812 253.3015625 -102.19140625 253.328125 C-98.67580259 252.96666759 -96.89842686 251.9425083 -94 250 C-93.34 250 -92.68 250 -92 250 C-86.93008688 240.25694957 -85.3146255 229.91808021 -87.62109375 219.08203125 C-93.42567495 201.20392117 -108.86271795 186.97314405 -121.90942383 174.12426758 C-127.38445357 168.70253185 -132.30949511 163.12150639 -137 157 C-137.91265625 155.87078125 -137.91265625 155.87078125 -138.84375 154.71875 C-159.50185845 128.98672017 -167.38631968 100.68112133 -165 68 C-161.78439203 43.0546776 -147.56970623 20.64014507 -128.01953125 5.1640625 C-91.27436563 -21.17076512 -38.39376588 -24.73929009 0 0 Z " fill="#FDFBE0" transform="translate(1176,474)"/>
<path d="M0 0 C9.96547799 6.16910542 16.42031507 12.06835482 21 23 C21.26401611 23.57057129 21.52803223 24.14114258 21.80004883 24.72900391 C24.22120291 30.37004332 24.35829462 35.42595883 24.1875 41.5 C24.0946875 46.2025 24.0946875 46.2025 24 51 C28.95 41.43 33.9 31.86 39 22 C43.60720123 22.92144025 46.28011302 24.02838774 50.33203125 26.23828125 C50.92747238 26.56032028 51.52291351 26.88235931 52.13639832 27.2141571 C54.03184373 28.24079921 55.9222815 29.27627116 57.8125 30.3125 C60.29698085 31.66496627 62.78329026 33.01405415 65.26953125 34.36328125 C65.86114044 34.68523468 66.45274963 35.00718811 67.06228638 35.33889771 C71.33080558 37.6562141 75.63552889 39.86978763 80 42 C77.10485735 51.26445649 70.23492741 57.35163123 62 62 C54.48251872 65.32542737 47.60902625 67.14767958 39.375 67.0625 C37.68503906 67.04896484 37.68503906 67.04896484 35.9609375 67.03515625 C34.49527344 67.01775391 34.49527344 67.01775391 33 67 C32.01 67 31.02 67 30 67 C30.6297876 67.34256836 31.2595752 67.68513672 31.90844727 68.03808594 C34.79354341 69.60796833 37.6780257 71.17897536 40.5625 72.75 C41.55314453 73.28882813 42.54378906 73.82765625 43.56445312 74.3828125 C48.74101271 77.20326357 53.8957631 80.05056717 59 83 C53.68871867 93.88306146 48.02956295 104.49898079 42 115 C41.24451635 116.32145722 40.48929755 117.6430659 39.734375 118.96484375 C38.87585937 120.46724609 38.87585937 120.46724609 38 122 C30.37685779 120.82720889 25.46497649 114.7609087 21 109 C19.39989281 106.7527157 18.13571724 104.51330019 17 102 C16.7009375 101.34257812 16.401875 100.68515625 16.09375 100.0078125 C13.06643134 91.906932 13.72728724 83.32281162 13.95239258 74.8125 C13.98576359 73.54200578 14 72.27093241 14 71 C13.49210938 72.02738281 12.98421875 73.05476563 12.4609375 74.11328125 C2.38949522 94.41575718 2.38949522 94.41575718 -2 101 C-7.18136251 100.41852445 -11.30251061 97.93805281 -15.8125 95.5 C-17.05543823 94.83701904 -17.05543823 94.83701904 -18.32348633 94.16064453 C-26.28343842 89.89478448 -34.15789652 85.4781115 -42 81 C-40.81759784 73.12627651 -34.84332175 68.28700487 -28.7109375 63.640625 C-23.51630657 60.49690023 -17.76939096 58.79459205 -12 57 C-10.515 56.505 -10.515 56.505 -9 56 C-7.06438022 55.90503453 -5.12544184 55.87012467 -3.1875 55.875 C-1.66189453 55.87113281 -1.66189453 55.87113281 -0.10546875 55.8671875 C3.0065064 56.00027826 5.9354866 56.46298356 9 57 C5.04918079 54.88172561 1.09816739 52.76381404 -2.85302734 50.64624023 C-4.19748203 49.9256372 -5.54188337 49.20493459 -6.88623047 48.48413086 C-8.81724288 47.44879468 -10.74844616 46.41381532 -12.6796875 45.37890625 C-13.84226074 44.7557251 -15.00483398 44.13254395 -16.20263672 43.49047852 C-17.79277015 42.64323077 -19.38845339 41.8057733 -21 41 C-20.33348539 37.63587311 -19.0462069 35.04829218 -17.36328125 32.0703125 C-13.21272842 24.61246228 -9.3255023 17.0237145 -5.41601562 9.4375 C-4.85978516 8.36242187 -4.30355469 7.28734375 -3.73046875 6.1796875 C-3.22926514 5.20757324 -2.72806152 4.23545898 -2.21166992 3.23388672 C-1 1 -1 1 0 0 Z " fill="#57EB64" transform="translate(1006,257)"/>
<path d="M0 0 C7.54382769 -0.1017192 15.0874774 -0.17159975 22.63183594 -0.21972656 C25.1963563 -0.23979728 27.76083115 -0.26706001 30.32519531 -0.30175781 C34.01899471 -0.35047355 37.71218709 -0.37301513 41.40625 -0.390625 C43.1160907 -0.42159271 43.1160907 -0.42159271 44.86047363 -0.45318604 C53.15372176 -0.45550492 58.68752741 0.83809435 64.75 6.625 C69.65399398 13.20231626 71.71355368 20.91982684 72 29 C72.0515625 30.15113281 72.103125 31.30226563 72.15625 32.48828125 C72.75272957 57.61498293 65.72893475 82.21690184 50 102 C49.47921875 102.66128906 48.9584375 103.32257813 48.421875 104.00390625 C42.75228834 110.40366695 34.02604868 114.32465044 26 117 C23.93854893 117.068991 21.87498599 117.08467727 19.8125 117.0625 C18.72582031 117.05347656 17.63914062 117.04445313 16.51953125 117.03515625 C15.27236328 117.01775391 15.27236328 117.01775391 14 117 C14.70510498 108.23087745 16.66948154 99.75799107 18.5625 91.1875 C18.91920637 89.55663411 19.27556436 87.92569198 19.6315918 86.29467773 C20.74686479 81.19478171 21.87196232 76.09708618 23 71 C23.18425537 70.16738647 23.36851074 69.33477295 23.55834961 68.47692871 C25.13231408 61.36837702 26.70891965 54.26041554 28.29711914 47.1550293 C30.24295955 38.44590517 32.14654507 29.72936888 34 21 C32.8560376 20.54971436 32.8560376 20.54971436 31.68896484 20.09033203 C20.76141582 15.65938651 10.36912756 9.59119623 0 4 C0 2.68 0 1.36 0 0 Z " fill="#121010" transform="translate(1506,535)"/>
<path d="M0 0 C0.66 0 1.32 0 2 0 C1.43548554 24.21417089 0.42288367 48.38435264 -0.86462402 72.57019043 C-1.04720207 76.01579533 -1.22621197 79.4615816 -1.40507507 82.90738106 C-1.88797157 92.20905727 -2.37170744 101.51067988 -2.88214111 110.8108902 C-3.00813064 113.15101848 -3.12684954 115.49146445 -3.24560547 117.83197021 C-3.32889978 119.39824479 -3.41238973 120.96450898 -3.49609375 122.53076172 C-3.54963768 123.63336429 -3.54963768 123.63336429 -3.60426331 124.75824165 C-3.88649914 129.88649914 -3.88649914 129.88649914 -5 131 C-6.44289787 131.09295815 -7.89029785 131.11746513 -9.33618164 131.11352539 C-10.71750023 131.11341209 -10.71750023 131.11341209 -12.12672424 131.11329651 C-13.12775681 131.10813522 -14.12878937 131.10297394 -15.16015625 131.09765625 C-16.17975937 131.0962413 -17.19936249 131.09482635 -18.24986267 131.09336853 C-21.52077107 131.08775097 -24.79161213 131.0751955 -28.0625 131.0625 C-30.27408756 131.05748726 -32.48567618 131.05292396 -34.69726562 131.04882812 C-40.13153357 131.03777584 -45.56576197 131.02102063 -51 131 C-50.11296084 122.51325282 -50.11296084 122.51325282 -48.25 118.796875 C-45.52794934 113.06392297 -43.29186766 107.16563666 -41 101.25 C-37.00901509 91.01403306 -32.90741773 80.83121113 -28.6875 70.6875 C-28.43161102 70.07217407 -28.17572205 69.45684814 -27.91207886 68.82287598 C-27.16278321 67.02122229 -26.41342358 65.21959522 -25.6640625 63.41796875 C-22.32917597 55.39913533 -19.04048686 47.36287288 -15.9519043 39.24536133 C-12.68010989 30.66075539 -9.217997 22.16773034 -5.6875 13.6875 C-5.13200724 12.3496734 -4.57666797 11.01178306 -4.02148438 9.67382812 C-2.68274914 6.44848575 -1.34197031 3.22399793 0 0 Z " fill="#13110F" transform="translate(1331,549)"/>
<path d="M0 0 C3.98684942 2.12066459 4.81241314 3.46403753 6.3125 7.75 C6.539375 8.8225 6.76625 9.895 7 11 C7.433125 10.236875 7.86625 9.47375 8.3125 8.6875 C10.80753667 4.71392308 11.68712742 3.31606192 16.375 2.1875 C21.37570905 1.92884264 23.6010404 2.75227927 27.3125 6.0625 C29.63488123 10.10516363 29.9470232 13.44144767 29 18 C27.03247916 21.54454136 24.36557654 23.75628231 21 26 C21.825 26.61875 22.65 27.2375 23.5 27.875 C26.06573905 30.43342925 26.43937421 32.41329227 26.5625 36 C26.38172246 39.47092884 26.04209956 40.92782933 24.25 44 C20.75507213 47.10660255 19.34498195 48.04890843 14.5625 47.875 C10.70056814 46.92645533 8.82907536 45.74586726 6 43 C4.39274365 39.78548731 4.94251815 36.56387464 5 33 C4.34 33 3.68 33 3 33 C2.938125 34.0725 2.87625 35.145 2.8125 36.25 C2 40 2 40 0 42.4375 C-4.08101514 44.56302872 -7.48558585 44.83418522 -12 44 C-14.87029869 42.20606332 -16.49131638 41.01736724 -18 38 C-18.63707113 32.85792584 -18.92622985 29.20159548 -15.6875 25 C-13.82812452 23.61627871 -11.92848399 22.28565599 -10 21 C-10.804375 20.34 -11.60875 19.68 -12.4375 19 C-15.20076769 15.7649549 -15.91850402 14.12125334 -16.20703125 9.99609375 C-15.85320383 6.5846633 -14.17972489 4.54301238 -12 2 C-7.95918798 -0.69387468 -4.74410694 -0.65867214 0 0 Z " fill="#F6A18D" transform="translate(904,279)"/>
<path d="M0 0 C4.31234622 0.60990255 7.52205247 2.16034017 11.33203125 4.23828125 C11.92747238 4.56032028 12.52291351 4.88235931 13.13639832 5.2141571 C15.03184373 6.24079921 16.9222815 7.27627116 18.8125 8.3125 C21.29698085 9.66496627 23.78329026 11.01405415 26.26953125 12.36328125 C26.86114044 12.68523468 27.45274963 13.00718811 28.06228638 13.33889771 C32.33080558 15.6562141 36.63552889 17.86978763 41 20 C38.10485735 29.26445649 31.23492741 35.35163123 23 40 C12.59724147 44.60175645 0.24465244 47.685922 -10.8125 43.5 C-11.864375 43.005 -12.91625 42.51 -14 42 C-13.67 38.37 -13.34 34.74 -13 31 C-13.66 31 -14.32 31 -15 31 C-13.68081552 26.73074054 -12.03926612 22.89821204 -9.9609375 18.9453125 C-9.38085938 17.83671875 -8.80078125 16.728125 -8.203125 15.5859375 C-7.29820313 13.87277344 -7.29820313 13.87277344 -6.375 12.125 C-5.45847656 10.37703125 -5.45847656 10.37703125 -4.5234375 8.59375 C-3.01959498 5.72705019 -1.51166982 2.86257779 0 0 Z " fill="#A6F881" transform="translate(1045,279)"/>
<path d="M0 0 C4.73205197 3.33971858 8.11005907 7.16000334 9.6875 12.8125 C10.52945899 19.90901146 8.55903985 24.85222748 4.6875 30.8125 C-0.77139292 36.14141928 -5.8020235 36.15898201 -13.140625 36.09375 C-18.56124337 35.61310404 -21.05275471 33.21221699 -24.5625 29.3125 C-28.78496205 23.28041136 -29.22015237 18.11114792 -28.3125 10.8125 C-26.17879329 5.1348255 -22.66826774 1.66131263 -17.3125 -1.1875 C-11.25856928 -2.99998028 -5.54321501 -3.30520671 0 0 Z " fill="#161A0A" transform="translate(1604.3125,755.1875)"/>
<path d="M0 0 C1.32 0 2.64 0 4 0 C4 4.95 4 9.9 4 15 C4.66 15 5.32 15 6 15 C6 14.34 6 13.68 6 13 C7.609375 11.23828125 7.609375 11.23828125 9.75 9.3125 C10.44609375 8.66925781 11.1421875 8.02601563 11.859375 7.36328125 C14 6 14 6 16.265625 6.29296875 C16.83796875 6.52628906 17.4103125 6.75960938 18 7 C17.91548357 9.87355849 17.45477932 11.54298589 15.41015625 13.59765625 C14.1552403 14.6421364 12.88324699 15.66649466 11.59375 16.66796875 C9.86886375 17.92936016 9.86886375 17.92936016 9 20 C13.95 20 18.9 20 24 20 C24 21.65 24 23.3 24 25 C22.12175109 26.87824891 18.96064724 26.39102397 16.4375 26.5625 C14.64119141 26.68818359 14.64119141 26.68818359 12.80859375 26.81640625 C11.88175781 26.87699219 10.95492188 26.93757813 10 27 C10.5775 27.53109375 11.155 28.0621875 11.75 28.609375 C12.86375 29.66898437 12.86375 29.66898437 14 30.75 C14.7425 31.44609375 15.485 32.1421875 16.25 32.859375 C18 35 18 35 18 39 C14.7171341 39.36795695 13.41336988 39.3231932 10.76171875 37.25 C10.07722656 36.5075 9.39273437 35.765 8.6875 35 C7.64142578 33.88625 7.64142578 33.88625 6.57421875 32.75 C5.79498047 31.88375 5.79498047 31.88375 5 31 C4.95101563 31.84304688 4.90203125 32.68609375 4.8515625 33.5546875 C4.77679687 34.65039062 4.70203125 35.74609375 4.625 36.875 C4.55539062 37.96554687 4.48578125 39.05609375 4.4140625 40.1796875 C4 43 4 43 2 45 C0.68 44.67 -0.64 44.34 -2 44 C-2 39.71 -2 35.42 -2 31 C-3.216875 32.134375 -4.43375 33.26875 -5.6875 34.4375 C-8.74583179 37.28848726 -10.8275894 38.48118887 -15 39 C-15.7421875 37.2578125 -15.7421875 37.2578125 -16 35 C-14.3828125 32.9296875 -14.3828125 32.9296875 -12.125 30.875 C-9.15307645 28.2463717 -9.15307645 28.2463717 -7 25 C-11.29 25 -15.58 25 -20 25 C-20.33 23.35 -20.66 21.7 -21 20 C-19.18884044 18.18884044 -16.38721773 18.61800552 -13.9375 18.4375 C-12.28041016 18.31181641 -12.28041016 18.31181641 -10.58984375 18.18359375 C-9.73519531 18.12300781 -8.88054688 18.06242187 -8 18 C-8.51691406 17.48050781 -9.03382813 16.96101563 -9.56640625 16.42578125 C-10.55447266 15.37970703 -10.55447266 15.37970703 -11.5625 14.3125 C-12.22378906 13.62800781 -12.88507812 12.94351562 -13.56640625 12.23828125 C-15 10 -15 10 -14.71484375 7.23046875 C-14.47894531 6.49441406 -14.24304688 5.75835937 -14 5 C-10.1775535 5.53884708 -8.76475982 7.05227864 -6.375 10 C-4.05444701 12.95572315 -4.05444701 12.95572315 -1 15 C-1.01160156 14.00097656 -1.02320313 13.00195312 -1.03515625 11.97265625 C-1.04417969 10.68230469 -1.05320312 9.39195312 -1.0625 8.0625 C-1.07410156 6.77472656 -1.08570313 5.48695313 -1.09765625 4.16015625 C-1 1 -1 1 0 0 Z " fill="#C295D8" transform="translate(1022,413)"/>
<path d="M0 0 C3.98684942 2.12066459 4.81241314 3.46403753 6.3125 7.75 C6.539375 8.8225 6.76625 9.895 7 11 C7.66 10.01 8.32 9.02 9 8 C8.67 10.31 8.34 12.62 8 15 C7.34 15 6.68 15 6 15 C6 16.32 6 17.64 6 19 C5.34 19 4.68 19 4 19 C4 19.66 4 20.32 4 21 C3.34 21 2.68 21 2 21 C2 22.98 2 24.96 2 27 C1.34 27 0.68 27 0 27 C0 28.32 0 29.64 0 31 C-0.66 31 -1.32 31 -2 31 C-2 31.66 -2 32.32 -2 33 C-2.66 33 -3.32 33 -4 33 C-4 35.64 -4 38.28 -4 41 C-5.32 41 -6.64 41 -8 41 C-8 41.66 -8 42.32 -8 43 C-9.6875 43.75 -9.6875 43.75 -12 44 C-14.64698845 42.21482174 -16.56010623 40.87978754 -18 38 C-18.63707113 32.85792584 -18.92622985 29.20159548 -15.6875 25 C-13.82812452 23.61627871 -11.92848399 22.28565599 -10 21 C-10.804375 20.34 -11.60875 19.68 -12.4375 19 C-15.20076769 15.7649549 -15.91850402 14.12125334 -16.20703125 9.99609375 C-15.85320383 6.5846633 -14.17972489 4.54301238 -12 2 C-7.95918798 -0.69387468 -4.74410694 -0.65867214 0 0 Z " fill="#F1860D" transform="translate(904,279)"/>
<path d="M0 0 C4.73205197 3.33971858 8.11005907 7.16000334 9.6875 12.8125 C10.52945899 19.90901146 8.55903985 24.85222748 4.6875 30.8125 C-0.77139292 36.14141928 -5.8020235 36.15898201 -13.140625 36.09375 C-18.56124337 35.61310404 -21.05275471 33.21221699 -24.5625 29.3125 C-28.78496205 23.28041136 -29.22015237 18.11114792 -28.3125 10.8125 C-26.17879329 5.1348255 -22.66826774 1.66131263 -17.3125 -1.1875 C-11.25856928 -2.99998028 -5.54321501 -3.30520671 0 0 Z M-20.3125 4.8125 C-23.69020995 9.37697291 -24.97550166 12.84442955 -24.703125 18.53515625 C-23.88579754 23.30017536 -21.77757862 27.1303727 -18.625 30.75 C-13.5106759 33.09982459 -8.86228484 33.26981356 -3.5 31.6875 C0.85705053 29.1245291 3.09056596 26.60330211 4.6875 21.8125 C5.19454484 16.51762196 5.33597741 12.15749019 3 7.3125 C-0.16928927 3.88624133 -2.13719384 2.04873234 -6.90234375 1.53125 C-14.2116374 1.24843539 -14.2116374 1.24843539 -20.3125 4.8125 Z " fill="#E3E7DA" transform="translate(1604.3125,755.1875)"/>
<path d="M0 0 C0.75410156 0.05220703 1.50820312 0.10441406 2.28515625 0.15820312 C4.1487937 0.28795004 6.01194996 0.42457488 7.875 0.5625 C7.917721 2.22861905 7.91563832 3.89632885 7.875 5.5625 C5.99675109 7.44074891 2.83564724 6.95352397 0.3125 7.125 C-0.88503906 7.20878906 -2.08257813 7.29257812 -3.31640625 7.37890625 C-4.70666016 7.46978516 -4.70666016 7.46978516 -6.125 7.5625 C-5.5475 8.09359375 -4.97 8.6246875 -4.375 9.171875 C-3.6325 9.87828125 -2.89 10.5846875 -2.125 11.3125 C-1.3825 12.00859375 -0.64 12.7046875 0.125 13.421875 C1.875 15.5625 1.875 15.5625 1.875 19.5625 C-1.4078659 19.93045695 -2.71163012 19.8856932 -5.36328125 17.8125 C-6.04777344 17.07 -6.73226563 16.3275 -7.4375 15.5625 C-8.48357422 14.44875 -8.48357422 14.44875 -9.55078125 13.3125 C-10.07027344 12.735 -10.58976562 12.1575 -11.125 11.5625 C-11.17398437 12.40554688 -11.22296875 13.24859375 -11.2734375 14.1171875 C-11.34820313 15.21289062 -11.42296875 16.30859375 -11.5 17.4375 C-11.56960938 18.52804687 -11.63921875 19.61859375 -11.7109375 20.7421875 C-12.125 23.5625 -12.125 23.5625 -14.125 25.5625 C-15.445 25.2325 -16.765 24.9025 -18.125 24.5625 C-18.125 20.2725 -18.125 15.9825 -18.125 11.5625 C-19.341875 12.696875 -20.55875 13.83125 -21.8125 15 C-24.87083179 17.85098726 -26.9525894 19.04368887 -31.125 19.5625 C-31.86328125 17.8203125 -31.86328125 17.8203125 -32.125 15.5625 C-30.54296875 13.4921875 -30.54296875 13.4921875 -28.3125 11.4375 C-27.58417969 10.75429688 -26.85585938 10.07109375 -26.10546875 9.3671875 C-25.45191406 8.77164062 -24.79835938 8.17609375 -24.125 7.5625 C-23.465 6.9025 -22.805 6.2425 -22.125 5.5625 C-22.125 6.2225 -22.125 6.8825 -22.125 7.5625 C-20.805 7.5625 -19.485 7.5625 -18.125 7.5625 C-18.125 6.9025 -18.125 6.2425 -18.125 5.5625 C-15.485 4.9025 -12.845 4.2425 -10.125 3.5625 C-10.125 2.5725 -10.125 1.5825 -10.125 0.5625 C-6.91158631 -1.04420684 -3.49541032 -0.26260855 0 0 Z " fill="#A78AD8" transform="translate(1038.125,432.4375)"/>
<path d="M0 0 C4.65240805 0.11149562 8.06990876 0.41157493 12.0625 2.9375 C14.8133332 7.28559118 14.89893324 10.98576686 14 16 C11.98256197 19.4584652 9.90658128 21.88383392 6 23 C0.70434916 22.80743088 -2.19770181 21.69046589 -6 18 C-7.60725635 14.78548731 -7.05748185 11.56387464 -7 8 C-5.35 8 -3.7 8 -2 8 C-2 6.02 -2 4.04 -2 2 C-1.34 2 -0.68 2 0 2 C0 1.34 0 0.68 0 0 Z " fill="#EDB8ED" transform="translate(916,304)"/>
<path d="M0 0 C12.22821195 -0.49406917 12.22821195 -0.49406917 15.8984375 1.85546875 C18 4 18 4 18.4375 6.5625 C18 9 18 9 16 12 C16.99 13.485 16.99 13.485 18 15 C18.07905064 17.33199388 18.08798769 19.66832622 18 22 C16.02 22 14.04 22 12 22 C11.5978125 20.2984375 11.5978125 20.2984375 11.1875 18.5625 C10.795625 17.386875 10.40375 16.21125 10 15 C9.01 14.67 8.02 14.34 7 14 C7 16.64 7 19.28 7 22 C4.69 22 2.38 22 0 22 C0 14.74 0 7.48 0 0 Z " fill="#E2E6D7" transform="translate(1586,761)"/>
<path d="M0 0 C0.33 0 0.66 0 1 0 C0.67 2.31 0.34 4.62 0 7 C-0.66 7 -1.32 7 -2 7 C-2 8.32 -2 9.64 -2 11 C-2.66 11 -3.32 11 -4 11 C-4 11.66 -4 12.32 -4 13 C-4.66 13 -5.32 13 -6 13 C-6 14.98 -6 16.96 -6 19 C-6.66 19 -7.32 19 -8 19 C-8 20.32 -8 21.64 -8 23 C-8.66 23 -9.32 23 -10 23 C-10 23.66 -10 24.32 -10 25 C-10.66 25 -11.32 25 -12 25 C-12 27.64 -12 30.28 -12 33 C-13.32 33 -14.64 33 -16 33 C-16 33.66 -16 34.32 -16 35 C-17.6875 35.75 -17.6875 35.75 -20 36 C-22.75 34.0625 -22.75 34.0625 -25 32 C-24.67 30.02 -24.34 28.04 -24 26 C-22.68 25.67 -21.36 25.34 -20 25 C-20 22.69 -20 20.38 -20 18 C-19.01 17.67 -18.02 17.34 -17 17 C-17 16.34 -17 15.68 -17 15 C-14.69 15 -12.38 15 -10 15 C-9.67 13.35 -9.34 11.7 -9 10 C-8.01 9.67 -7.02 9.34 -6 9 C-6 6.36 -6 3.72 -6 1 C-4.68 1 -3.36 1 -2 1 C-1.67 1.66 -1.34 2.32 -1 3 C-0.67 2.01 -0.34 1.02 0 0 Z " fill="#FC9B6F" transform="translate(912,287)"/>
<path d="M0 0 C3.61497739 1.47158371 5.40591511 3.41462331 7.75 6.5 C8.36359375 7.2940625 8.9771875 8.088125 9.609375 8.90625 C11 11 11 11 11 13 C8.953125 14.98046875 8.953125 14.98046875 6.25 17.1875 C5.36828125 17.92355469 4.4865625 18.65960938 3.578125 19.41796875 C1 21 1 21 -1.1640625 20.92578125 C-4.21214021 19.38877185 -5.91190803 16.63758986 -8 14 C-8.66 13.67 -9.32 13.34 -10 13 C-10.3125 10.76953125 -10.3125 10.76953125 -10 8 C-7.8125 5.76171875 -7.8125 5.76171875 -5 3.6875 C-4.071875 2.99011719 -3.14375 2.29273438 -2.1875 1.57421875 C-1.1046875 0.79498047 -1.1046875 0.79498047 0 0 Z " fill="#D27CB9" transform="translate(970,389)"/>
<path d="M0 0 C2.6875 -0.375 2.6875 -0.375 6 0 C9.08401933 2.61471204 10.61401324 4.2537212 11.484375 8.19140625 C11.72350748 12.11716445 11.32065858 15.24548722 9.125 18.5625 C4.78244244 21.9496949 1.31470339 21.55726987 -4 21 C-3.855625 20.29875 -3.71125 19.5975 -3.5625 18.875 C-2.98521625 15.92443859 -2.48304859 12.96729849 -2 10 C-1.34 10 -0.68 10 0 10 C0 6.7 0 3.4 0 0 Z " fill="#E5ABB5" transform="translate(922,282)"/>
<path d="M0 0 C1.32 0 2.64 0 4 0 C4 4.95 4 9.9 4 15 C3.34 15 2.68 15 2 15 C2 16.32 2 17.64 2 19 C-5.24914676 19.61433447 -5.24914676 19.61433447 -8.75 16.75 C-9.86375 15.38875 -9.86375 15.38875 -11 14 C-11.78375 13.34 -12.5675 12.68 -13.375 12 C-15 10 -15 10 -14.75 7.25 C-14.5025 6.5075 -14.255 5.765 -14 5 C-10.1775535 5.53884708 -8.76475982 7.05227864 -6.375 10 C-4.05444701 12.95572315 -4.05444701 12.95572315 -1 15 C-1.01160156 14.00097656 -1.02320313 13.00195312 -1.03515625 11.97265625 C-1.04417969 10.68230469 -1.05320312 9.39195312 -1.0625 8.0625 C-1.07410156 6.77472656 -1.08570313 5.48695313 -1.09765625 4.16015625 C-1 1 -1 1 0 0 Z " fill="#D9AEDE" transform="translate(1022,413)"/>
<path d="M0 0 C0.99 0 1.98 0 3 0 C3 2.97 3 5.94 3 9 C2.34 9 1.68 9 1 9 C1.04125 9.886875 1.0825 10.77375 1.125 11.6875 C1.00102754 14.97277013 0.38612096 17.05449295 -1 20 C1.31 20 3.62 20 6 20 C3 22 3 22 -0.1875 21.625 C-1.115625 21.41875 -2.04375 21.2125 -3 21 C-3 21.66 -3 22.32 -3 23 C-3.66 23 -4.32 23 -5 23 C-5 24.98 -5 26.96 -5 29 C-7.31 29 -9.62 29 -12 29 C-12 30.65 -12 32.3 -12 34 C-12.99 33.67 -13.98 33.34 -15 33 C-15 31.68 -15 30.36 -15 29 C-14.01 28.34 -13.02 27.68 -12 27 C-11.27617533 24.94074861 -11.27617533 24.94074861 -11 23 C-9.68 23 -8.36 23 -7 23 C-7 20.03 -7 17.06 -7 14 C-6.34 14.33 -5.68 14.66 -5 15 C-4.67 12.03 -4.34 9.06 -4 6 C-2.35 5.67 -0.7 5.34 1 5 C0.67 3.35 0.34 1.7 0 0 Z " fill="#F8A9B0" transform="translate(919,283)"/>
<path d="M0 0 C-0.04640625 0.70125 -0.0928125 1.4025 -0.140625 2.125 C-0.38503065 8.54937721 -0.20638965 13.86443771 4 19 C10.03519007 23.14919317 15.99387178 21.9548582 23 21 C21.89453125 23.46484375 21.89453125 23.46484375 20 26 C14.30484272 27.22419269 8.68504233 26.79817795 3.4375 24.3125 C-0.92909217 20.16983563 -4.79423053 16.17708057 -5.1953125 9.984375 C-5.17210937 8.91703125 -5.14890625 7.8496875 -5.125 6.75 C-5.10695313 5.67234375 -5.08890625 4.5946875 -5.0703125 3.484375 C-5.04710937 2.66453125 -5.02390625 1.8446875 -5 1 C-3 0 -3 0 0 0 Z " fill="#E8ECDA" transform="translate(1581,765)"/>
<path d="M0 0 C1.65 0 3.3 0 5 0 C5 1.32 5 2.64 5 4 C4.34 4 3.68 4 3 4 C3 5.98 3 7.96 3 10 C2.34 10 1.68 10 1 10 C1 13.3 1 16.6 1 20 C-0.32 20.33 -1.64 20.66 -3 21 C-5.75 19.0625 -5.75 19.0625 -8 17 C-7.67 15.02 -7.34 13.04 -7 11 C-5.68 10.67 -4.36 10.34 -3 10 C-3 7.69 -3 5.38 -3 3 C-2.01 2.67 -1.02 2.34 0 2 C0 1.34 0 0.68 0 0 Z " fill="#F19450" transform="translate(895,302)"/>
<path d="M0 0 C0.99 0.33 1.98 0.66 3 1 C2.3125 4.375 2.3125 4.375 1 8 C-1.38033876 9.37809086 -3.32202095 9.87287893 -6 10.375 C-8.86605226 11.27064133 -10.74864946 13.06133704 -13 15 C-12.67 15.763125 -12.34 16.52625 -12 17.3125 C-11 20 -11 20 -11 23 C-13.9375 22.25 -13.9375 22.25 -17 21 C-17.87109375 19.19140625 -17.87109375 19.19140625 -18 17 C-14.23181405 9.87206783 -7.18377833 3.59188916 0 0 Z " fill="#10D243" transform="translate(982,318)"/>
<path d="M0 0 C3.86184826 1.82929654 5.47015759 2.94031518 7.375 6.75 C7.58125 7.4925 7.7875 8.235 8 9 C7.34 9.66 6.68 10.32 6 11 C5.21625 10.195625 4.4325 9.39125 3.625 8.5625 C-0.19695377 4.83154513 -2.37127785 4.79804956 -7.625 4.4375 C-8.81351563 4.35371094 -10.00203125 4.26992188 -11.2265625 4.18359375 C-12.14179687 4.12300781 -13.05703125 4.06242188 -14 4 C-14.1340625 4.62261719 -14.268125 5.24523437 -14.40625 5.88671875 C-15 8 -15 8 -16.5 9.8125 C-18.52743414 12.76917479 -18.66146979 15.47928577 -19 19 C-19.33 19 -19.66 19 -20 19 C-20.53993763 12.38576402 -19.99185395 8.39439723 -16 3 C-11.58862476 -1.14401917 -5.70264336 -0.75254824 0 0 Z " fill="#161A0C" transform="translate(1600,757)"/>
<path d="M0 0 C0.66 0 1.32 0 2 0 C2.042721 1.66611905 2.04063832 3.33382885 2 5 C0.12175109 6.87824891 -3.03935276 6.39102397 -5.5625 6.5625 C-6.76003906 6.64628906 -7.95757813 6.73007812 -9.19140625 6.81640625 C-10.11824219 6.87699219 -11.04507812 6.93757813 -12 7 C-11.4225 7.53109375 -10.845 8.0621875 -10.25 8.609375 C-9.5075 9.31578125 -8.765 10.0221875 -8 10.75 C-7.2575 11.44609375 -6.515 12.1421875 -5.75 12.859375 C-4 15 -4 15 -4 19 C-6.19921875 19.28125 -6.19921875 19.28125 -9 19 C-11.45703125 17.03125 -11.45703125 17.03125 -13.8125 14.5 C-14.60269531 13.6646875 -15.39289063 12.829375 -16.20703125 11.96875 C-17.09455078 10.99421875 -17.09455078 10.99421875 -18 10 C-17.34 9.67 -16.68 9.34 -16 9 C-16 8.34 -16 7.68 -16 7 C-15.34 7 -14.68 7 -14 7 C-14 6.34 -14 5.68 -14 5 C-10.7 5 -7.4 5 -4 5 C-4 4.01 -4 3.02 -4 2 C-2.68 1.67 -1.36 1.34 0 1 C0 0.67 0 0.34 0 0 Z " fill="#826ACE" transform="translate(1044,433)"/>
<path d="M0 0 C2.4375 1.1875 2.4375 1.1875 5 3 C5.8125 5.6875 5.8125 5.6875 6 8 C4.68 8 3.36 8 2 8 C2.061875 9.27875 2.12375 10.5575 2.1875 11.875 C2.29296875 14.0546875 2.29296875 14.0546875 2 16 C1.01 16.66 0.02 17.32 -1 18 C-1.72382467 20.05925139 -1.72382467 20.05925139 -2 22 C-3.32 21.67 -4.64 21.34 -6 21 C-6 17.37 -6 13.74 -6 10 C-4.02 10 -2.04 10 0 10 C0 6.7 0 3.4 0 0 Z " fill="#FD9140" transform="translate(904,280)"/>
<path d="M0 0 C0.66 0 1.32 0 2 0 C2 2.97 2 5.94 2 9 C2.66 9.33 3.32 9.66 4 10 C2.35 10 0.7 10 -1 10 C-1 10.66 -1 11.32 -1 12 C-1.99 12.495 -1.99 12.495 -3 13 C-3.40729228 15.32156597 -3.74438677 17.6568787 -4 20 C-4.99 20.33 -5.98 20.66 -7 21 C-8.20882096 23.00016466 -8.20882096 23.00016466 -9 25 C-9.33 25 -9.66 25 -10 25 C-10.78482206 16.01814754 -10.78482206 16.01814754 -7.6875 12 C-5.82812452 10.61627871 -3.92848399 9.28565599 -2 8 C-2.99 7.34 -3.98 6.68 -5 6 C-5 5.34 -5 4.68 -5 4 C-3.35 4 -1.7 4 0 4 C0 2.68 0 1.36 0 0 Z " fill="#E78424" transform="translate(896,292)"/>
<path d="M0 0 C1.32 0 2.64 0 4 0 C5.09658936 3.28976808 4.79953138 4.71303767 4 8 C3.34 8 2.68 8 2 8 C2 8.66 2 9.32 2 10 C1.34 10 0.68 10 0 10 C-0.66 11.98 -1.32 13.96 -2 16 C-2.66 16 -3.32 16 -4 16 C-4.33 16.99 -4.66 17.98 -5 19 C-7.67927341 14.98108988 -7.15601248 12.75838077 -7 8 C-5.35 8 -3.7 8 -2 8 C-2 6.02 -2 4.04 -2 2 C-1.34 2 -0.68 2 0 2 C0 1.34 0 0.68 0 0 Z " fill="#F6B7E1" transform="translate(916,304)"/>
<path d="M0 0 C1.65 0 3.3 0 5 0 C5.36022892 4.59291877 5.57869016 7.94978453 3.3125 12.0625 C1 14 1 14 -1.75 14.3125 C-2.86375 14.1578125 -2.86375 14.1578125 -4 14 C-5.35439668 11.29120665 -5.06501451 8.99066732 -5 6 C-4.01 6 -3.02 6 -2 6 C-1.7834375 5.071875 -1.7834375 5.071875 -1.5625 4.125 C-1 2 -1 2 0 0 Z " fill="#E7B9E3" transform="translate(928,288)"/>
<path d="M0 0 C0 9.57 0 19.14 0 29 C-0.66 29.33 -1.32 29.66 -2 30 C-3.07917226 26.76248322 -3.11425601 24.42248229 -3.09765625 21.01953125 C-3.09443359 19.85615234 -3.09121094 18.69277344 -3.08789062 17.49414062 C-3.07951172 16.27919922 -3.07113281 15.06425781 -3.0625 13.8125 C-3.05798828 12.58595703 -3.05347656 11.35941406 -3.04882812 10.09570312 C-3.03703065 7.06375332 -3.02056921 4.03190094 -3 1 C-1 0 -1 0 0 0 Z " fill="#F3F4E7" transform="translate(1014,541)"/>
<path d="M0 0 C0.99 0 1.98 0 3 0 C3 2.97 3 5.94 3 9 C2.34 9 1.68 9 1 9 C0.67 10.32 0.34 11.64 0 13 C-0.99 13 -1.98 13 -3 13 C-2.67 14.98 -2.34 16.96 -2 19 C-2.66 19 -3.32 19 -4 19 C-4.66 20.32 -5.32 21.64 -6 23 C-6.33 23 -6.66 23 -7 23 C-7 20.03 -7 17.06 -7 14 C-6.01 14.495 -6.01 14.495 -5 15 C-4.67 12.03 -4.34 9.06 -4 6 C-2.35 5.67 -0.7 5.34 1 5 C0.67 3.35 0.34 1.7 0 0 Z " fill="#F6A8A4" transform="translate(919,283)"/>
<path d="M0 0 C0.66 0 1.32 0 2 0 C0.05045834 7.21330414 -3.87752882 13.81629324 -8 20 C-11.94120709 19.43697042 -14.7508723 18.3208055 -18 16 C-18 15.34 -18 14.68 -18 14 C-16.35 14 -14.7 14 -13 14 C-13 14.66 -13 15.32 -13 16 C-10.00594421 15.53146378 -10.00594421 15.53146378 -7 14 C-5.64618344 10.67896671 -5.64618344 10.67896671 -5 7 C-4.35800351 5.32367583 -3.70105843 3.65249487 -3 2 C-2.01 2 -1.02 2 0 2 C0 1.34 0 0.68 0 0 Z " fill="#10D03F" transform="translate(1012,338)"/>
<path d="M0 0 C0 6.6 0 13.2 0 20 C-3 19 -3 19 -4.1640625 17.24609375 C-5.65845213 13.2307945 -5.57844119 9.21241293 -5 5 C-1.9 0 -1.9 0 0 0 Z " fill="#0E1202" transform="translate(1586,764)"/>
<path d="M0 0 C0.33 0 0.66 0 1 0 C1 1.98 1 3.96 1 6 C1.66 6.33 2.32 6.66 3 7 C0.81321095 9.52709628 -1.37232162 11.92608855 -4 14 C-6.9375 13.9375 -6.9375 13.9375 -9 13 C-8.43009348 9.40642281 -7.13617523 7.82750729 -4.5 5.375 C-1.88193354 2.96389084 -1.88193354 2.96389084 0 0 Z " fill="#957DC1" transform="translate(1015,438)"/>
<path d="M0 0 C4.30120268 1.91164564 6.199135 4.26551333 9 8 C9 8.66 9 9.32 9 10 C7.25 11.6875 7.25 11.6875 5 13 C2.8125 12.875 2.8125 12.875 1 12 C0.03929566 9.11788698 -0.10581883 7.30149956 -0.0625 4.3125 C-0.05347656 3.50425781 -0.04445313 2.69601562 -0.03515625 1.86328125 C-0.02355469 1.24839844 -0.01195312 0.63351562 0 0 Z " fill="#DE9DD7" transform="translate(972,392)"/>
<path d="M0 0 C0.33 1.32 0.66 2.64 1 4 C1.66 4 2.32 4 3 4 C2.84273437 4.515625 2.68546875 5.03125 2.5234375 5.5625 C1.59831427 9.87053651 1.65340469 14.29436761 1.4765625 18.6875 C0.98588604 22.09810361 0.31743202 23.52146308 -2 26 C-2.33 25.67 -2.66 25.34 -3 25 C-2.83024299 16.57744075 -1.53419532 8.26678063 0 0 Z " fill="#ECEDE7" transform="translate(749,622)"/>
<path d="M0 0 C4.10801767 1.18676066 5.89448334 1.89448334 9 5 C5.7 10.94 2.4 16.88 -1 23 C-1.33 23 -1.66 23 -2 23 C-2.19622241 18.78121808 -1.80230168 15.82989106 0 12 C0.99 12 1.98 12 3 12 C3.33 8.7 3.66 5.4 4 2 C2.68 2 1.36 2 0 2 C0 1.34 0 0.68 0 0 Z " fill="#96E784" transform="translate(1056,336)"/>
<path d="M0 0 C0.98316039 3.40388303 1.29411056 6.72259589 1.5625 10.25 C1.64628906 11.32765625 1.73007812 12.4053125 1.81640625 13.515625 C1.87699219 14.33546875 1.93757812 15.1553125 2 16 C-1.33314754 14.41045275 -3.66110147 12.92362316 -6 10 C-6.625 7.5625 -6.625 7.5625 -6 5 C-4.14023296 3.03273197 -2.20606765 1.60859099 0 0 Z " fill="#C84990" transform="translate(966,392)"/>
<path d="M0 0 C-0.50603992 2.16874252 -0.99983813 3.99967627 -2 6 C-2.99 6 -3.98 6 -5 6 C-4.67 8.64 -4.34 11.28 -4 14 C-2.68 14.33 -1.36 14.66 0 15 C-3.3 15 -6.6 15 -10 15 C-9.67558396 13.33157466 -9.34060811 11.66519519 -9 10 C-8.855625 9.2575 -8.71125 8.515 -8.5625 7.75 C-8.376875 7.1725 -8.19125 6.595 -8 6 C-7.34 5.67 -6.68 5.34 -6 5 C-5.67 4.01 -5.34 3.02 -5 2 C-2 0 -2 0 0 0 Z " fill="#F1B0CD" transform="translate(928,288)"/>
<path d="M0 0 C4.29861295 0.47762366 6.17073483 2.901281 9 6 C9.8353125 6.88171875 9.8353125 6.88171875 10.6875 7.78125 C11.244375 8.3896875 11.80125 8.998125 12.375 9.625 C13.16003906 10.47964844 13.16003906 10.47964844 13.9609375 11.3515625 C14.30382812 11.89554687 14.64671875 12.43953125 15 13 C14.67 13.99 14.34 14.98 14 16 C13.34 15.67 12.68 15.34 12 15 C12 14.01 12 13.02 12 12 C11.071875 11.8453125 11.071875 11.8453125 10.125 11.6875 C8 11 8 11 6 8 C5.34 7.731875 4.68 7.46375 4 7.1875 C1.05655591 5.43983007 0.83508563 3.20116158 0 0 Z " fill="#ECECD6" transform="translate(954,478)"/>
<path d="M0 0 C1.65 0 3.3 0 5 0 C5 1.32 5 2.64 5 4 C4.34 4 3.68 4 3 4 C3 5.98 3 7.96 3 10 C1.02 10 -0.96 10 -3 10 C-3 7.69 -3 5.38 -3 3 C-2.01 2.67 -1.02 2.34 0 2 C0 1.34 0 0.68 0 0 Z " fill="#F9913E" transform="translate(895,302)"/>
<path d="M0 0 C0.66 0 1.32 0 2 0 C2 2.31 2 4.62 2 7 C2.99 7 3.98 7 5 7 C5.33 5.68 5.66 4.36 6 3 C6.33 3 6.66 3 7 3 C7.05395478 4.62463842 7.09277195 6.24978541 7.125 7.875 C7.14820313 8.77992188 7.17140625 9.68484375 7.1953125 10.6171875 C7 13 7 13 5 15 C3.68 14.67 2.36 14.34 1 14 C0.67 9.38 0.34 4.76 0 0 Z " fill="#6757B8" transform="translate(1019,443)"/>
<path d="M0 0 C0 3.63 0 7.26 0 11 C-1.32 11 -2.64 11 -4 11 C-4 7.7 -4 4.4 -4 1 C-5.98 1.99 -7.96 2.98 -10 4 C-10.66 3.34 -11.32 2.68 -12 2 C-7.7975546 -0.80163026 -4.99895065 -0.14489712 0 0 Z " fill="#FA891D" transform="translate(904,279)"/>
<path d="M0 0 C3.85313138 0.10703143 4.97825544 0.97825544 7.75 3.75 C9.82670577 6.74968611 10.68518431 8.43208879 11 12 C9.68 12 8.36 12 7 12 C5.62109375 10.35546875 5.62109375 10.35546875 4.4375 8.1875 C2.87226638 5.37007949 1.38052531 3.18732326 -1 1 C-0.67 0.67 -0.34 0.34 0 0 Z " fill="#EDF0E4" transform="translate(1602,756)"/>
<path d="M0 0 C2.12157386 3.79870734 2.24663053 6.64286068 2 11 C1.67 11.33 1.34 11.66 1 12 C0.63239269 14.32817964 0.29758419 16.6618385 0 19 C-0.66 19 -1.32 19 -2 19 C-2 19.66 -2 20.32 -2 21 C-2.66 21 -3.32 21 -4 21 C-3.29843593 13.84404654 -1.69214979 6.98144819 0 0 Z " fill="#E5E8DC" transform="translate(1476,501)"/>
<path d="M0 0 C0.33 0 0.66 0 1 0 C0.67 2.31 0.34 4.62 0 7 C-0.66 7 -1.32 7 -2 7 C-2 8.32 -2 9.64 -2 11 C-2.66 11 -3.32 11 -4 11 C-4 11.66 -4 12.32 -4 13 C-4.66 13 -5.32 13 -6 13 C-6 9.04 -6 5.08 -6 1 C-4.68 1 -3.36 1 -2 1 C-1.67 1.66 -1.34 2.32 -1 3 C-0.67 2.01 -0.34 1.02 0 0 Z " fill="#EA9770" transform="translate(912,287)"/>
<path d="M0 0 C0.66 0.33 1.32 0.66 2 1 C1.29875 1.886875 0.5975 2.77375 -0.125 3.6875 C-0.74375 4.780625 -1.3625 5.87375 -2 7 C-1.35336433 9.7004039 -1.35336433 9.7004039 0 12 C0 12.99 0 13.98 0 15 C-2.9375 14.25 -2.9375 14.25 -6 13 C-6.90625 11.21875 -6.90625 11.21875 -7 9 C-5.56640625 6.640625 -5.56640625 6.640625 -3.5625 4.25 C-2.57443359 3.05117188 -2.57443359 3.05117188 -1.56640625 1.828125 C-1.04949219 1.22484375 -0.53257812 0.6215625 0 0 Z " fill="#10CD3E" transform="translate(971,326)"/>
<path d="M0 0 C0.33 0 0.66 0 1 0 C1 3.3 1 6.6 1 10 C-0.98 10.99 -0.98 10.99 -3 12 C-3.62921955 14.61840385 -3.62921955 14.61840385 -3.625 17.5625 C-3.7265625 20.56640625 -3.7265625 20.56640625 -4 23 C-4.66 23.33 -5.32 23.66 -6 24 C-5.55327444 18.52761188 -4.41043351 13.3629393 -3 8.0625 C-2.82178711 7.38759521 -2.64357422 6.71269043 -2.45996094 6.01733398 C-1.1297533 1.1297533 -1.1297533 1.1297533 0 0 Z " fill="#E3E4D8" transform="translate(884,612)"/>
<path d="M0 0 C2.72426311 2.35277269 3.8141763 4.62496331 5 8 C5.99 8 6.98 8 8 8 C8.33 8.66 8.66 9.32 9 10 C10.2684375 10.99 10.2684375 10.99 11.5625 12 C12.366875 12.66 13.17125 13.32 14 14 C14 14.66 14 15.32 14 16 C8.33575363 15.39594575 6.21799183 12.53987385 2.671875 8.3671875 C0.71041608 5.58998164 0 3.4070457 0 0 Z " fill="#2DCB52" transform="translate(1026,360)"/>
<path d="M0 0 C4.53847198 1.34927545 8.31932246 3.19159348 12.375 5.625 C13.43460938 6.25664062 14.49421875 6.88828125 15.5859375 7.5390625 C16.38257813 8.02117187 17.17921875 8.50328125 18 9 C17.01 10.485 17.01 10.485 16 12 C15.34 11.67 14.68 11.34 14 11 C14 10.34 14 9.68 14 9 C12.68 8.67 11.36 8.34 10 8 C10 7.34 10 6.68 10 6 C8.68 6 7.36 6 6 6 C6 5.34 6 4.68 6 4 C4.02 4 2.04 4 0 4 C0 2.68 0 1.36 0 0 Z " fill="#8AEC7F" transform="translate(1034,324)"/>
<path d="M0 0 C1.32 0.33 2.64 0.66 4 1 C2.78184562 5.68520915 1.30440013 9.70543612 -1 14 C-3 12 -3 12 -3.046875 9.94140625 C-2.89992188 8.76384766 -2.89992188 8.76384766 -2.75 7.5625 C-2.66234375 6.78003906 -2.5746875 5.99757813 -2.484375 5.19140625 C-2 3 -2 3 0 0 Z " fill="#1F211E" transform="translate(1246,567)"/>
<path d="M0 0 C0.556875 0.268125 1.11375 0.53625 1.6875 0.8125 C0.8125 5.6875 0.8125 5.6875 -0.3125 6.8125 C-2.64497761 7.15176947 -4.97835471 7.48490066 -7.3125 7.8125 C-8.3025 8.3075 -8.3025 8.3075 -9.3125 8.8125 C-7.66495848 4.76853446 -4.80734346 -0.3897846 0 0 Z " fill="#D4A5E2" transform="translate(1038.3125,419.1875)"/>
<path d="M0 0 C5.39371278 1.8925308 10.1083961 4.04465598 15 7 C12.19404512 8.40297744 10.47228145 7.33969067 7.57421875 6.546875 C2.45946137 5.46028011 -2.78959312 5.30182235 -8 5 C-8 4.67 -8 4.34 -8 4 C-4.535 3.505 -4.535 3.505 -1 3 C-0.67 2.01 -0.34 1.02 0 0 Z " fill="#042002" transform="translate(1004,308)"/>
<path d="M0 0 C2.97 1.98 5.94 3.96 9 6 C8.01 6.66 7.02 7.32 6 8 C4.68 6.68 3.36 5.36 2 4 C-0.31 6.97 -2.62 9.94 -5 13 C-5.33 12.34 -5.66 11.68 -6 11 C-4.78515625 8.3984375 -4.78515625 8.3984375 -3.0625 5.375 C-2.21365234 3.87066406 -2.21365234 3.87066406 -1.34765625 2.3359375 C-0.90292969 1.56507813 -0.45820312 0.79421875 0 0 Z " fill="#A3E580" transform="translate(1006,257)"/>
<path d="M0 0 C-0.11398665 1.62580966 -0.24155659 3.25067157 -0.375 4.875 C-0.44460938 5.77992188 -0.51421875 6.68484375 -0.5859375 7.6171875 C-1 10 -1 10 -3 12 C-3.66 11.67 -4.32 11.34 -5 11 C-5 7.7 -5 4.4 -5 1 C-3 0 -3 0 0 0 Z " fill="#F4F7EA" transform="translate(1581,765)"/>
<path d="M0 0 C2.64 0 5.28 0 8 0 C8.33 1.32 8.66 2.64 9 4 C8.67 3.34 8.34 2.68 8 2 C6.68 2 5.36 2 4 2 C4 2.99 4 3.98 4 5 C1.03 5 -1.94 5 -5 5 C-4.67 4.01 -4.34 3.02 -4 2 C-2.68 2 -1.36 2 0 2 C0 1.34 0 0.68 0 0 Z " fill="#9582D2" transform="translate(1036,433)"/>
<path d="M0 0 C0.33 0 0.66 0 1 0 C1 2.31 1 4.62 1 7 C0.34 7 -0.32 7 -1 7 C-1 7.66 -1 8.32 -1 9 C-1.66 9 -2.32 9 -3 9 C-3 9.66 -3 10.32 -3 11 C-4.98 11.33 -6.96 11.66 -9 12 C-7 9.33333333 -5 6.66666667 -3 4 C-2.45988281 3.25234375 -1.91976562 2.5046875 -1.36328125 1.734375 C-0.91339844 1.16203125 -0.46351563 0.5896875 0 0 Z " fill="#221E0B" transform="translate(943,745)"/>
<path d="M0 0 C0.33 0 0.66 0 1 0 C0.56071941 5.49100742 -0.75974452 8.5814698 -4 13 C-4.69429379 14.3191582 -5.37530495 15.64649406 -6 17 C-6.66 16.67 -7.32 16.34 -8 16 C-6.57250019 12.20950293 -4.83763458 8.72877544 -2.875 5.1875 C-2.33617187 4.21167969 -1.79734375 3.23585938 -1.2421875 2.23046875 C-0.83226562 1.49441406 -0.42234375 0.75835938 0 0 Z " fill="#241C18" transform="translate(853,555)"/>
<path d="M0 0 C1.625 1.8125 1.625 1.8125 1.625 5.8125 C-0.5625 6.1875 -0.5625 6.1875 -3.375 5.8125 C-5.36522836 3.97288352 -6.76489899 2.02063852 -8.375 -0.1875 C-3.04166667 -1.52083333 -3.04166667 -1.52083333 0 0 Z " fill="#685CC0" transform="translate(1038.375,446.1875)"/>
<path d="M0 0 C0.33 0 0.66 0 1 0 C1 2.31 1 4.62 1 7 C1.66 7 2.32 7 3 7 C3.33 10.3 3.66 13.6 4 17 C2.68 16.67 1.36 16.34 0 16 C-0.19441368 13.7089095 -0.38033135 11.41709663 -0.5625 9.125 C-0.71912109 7.21074219 -0.71912109 7.21074219 -0.87890625 5.2578125 C-1 2 -1 2 0 0 Z " fill="#D95EA7" transform="translate(967,393)"/>
<path d="M0 0 C2.4375 1.1875 2.4375 1.1875 5 3 C5.8125 5.6875 5.8125 5.6875 6 8 C4.68 8 3.36 8 2 8 C2 8.99 2 9.98 2 11 C1.34 11 0.68 11 0 11 C0 7.37 0 3.74 0 0 Z " fill="#EE8C41" transform="translate(904,280)"/>
<path d="M0 0 C-1.45044271 4.10958767 -3.51110752 7.43258745 -6 11 C-6.66 10.67 -7.32 10.34 -8 10 C-7.4454626 6.67277559 -6.75986957 3.8986087 -5 1 C-3 0 -3 0 0 0 Z " fill="#EDEAD5" transform="translate(1634,650)"/>
<path d="M0 0 C1.65 0 3.3 0 5 0 C5 1.32 5 2.64 5 4 C4.34 4 3.68 4 3 4 C3 4.66 3 5.32 3 6 C3.66 6 4.32 6 5 6 C5 6.66 5 7.32 5 8 C4.34 8 3.68 8 3 8 C2.67 8.99 2.34 9.98 2 11 C-0.67927341 6.98108988 -0.15601248 4.75838077 0 0 Z " fill="#EDB5C8" transform="translate(909,312)"/>
<path d="M0 0 C-0.66 0 -1.32 0 -2 0 C-2.144375 0.763125 -2.28875 1.52625 -2.4375 2.3125 C-3 5 -3 5 -4 8 C-4.99 8 -5.98 8 -7 8 C-7 5.69 -7 3.38 -7 1 C-7.99 1.33 -8.98 1.66 -10 2 C-10 1.34 -10 0.68 -10 0 C-3.375 -1.125 -3.375 -1.125 0 0 Z " fill="#8670C8" transform="translate(1028,442)"/>
<path d="M0 0 C4.95 0 9.9 0 15 0 C15.33 0.66 15.66 1.32 16 2 C12.7 2 9.4 2 6 2 C5.67 2.66 5.34 3.32 5 4 C3.35 4 1.7 4 0 4 C0 2.68 0 1.36 0 0 Z " fill="#D9AAE5" transform="translate(1001,433)"/>
<path d="M0 0 C0.66 0 1.32 0 2 0 C0.68448876 4.60428934 -1.09196486 8.18320388 -4 12 C-4.66 12 -5.32 12 -6 12 C-5.39009109 8.44219804 -4.4216319 5.3171411 -3 2 C-2.01 2 -1.02 2 0 2 C0 1.34 0 0.68 0 0 Z " fill="#28D651" transform="translate(1012,338)"/>
<path d="M0 0 C0.33 0 0.66 0 1 0 C1.66964286 7.76785714 1.66964286 7.76785714 -1.375 11.5 C-4 14 -4 14 -6 14 C-6 14.66 -6 15.32 -6 16 C-5.01 16 -4.02 16 -3 16 C-3.33 17.32 -3.66 18.64 -4 20 C-4.598125 19.38125 -5.19625 18.7625 -5.8125 18.125 C-8.00811144 15.86323046 -8.00811144 15.86323046 -11 14 C-9.3603125 13.38125 -9.3603125 13.38125 -7.6875 12.75 C-4.45731553 11.34046496 -2.62477442 10.24954884 -1 7 C-0.27518916 3.34725531 -0.27518916 3.34725531 0 0 Z " fill="#371F35" transform="translate(933,290)"/>
<path d="M0 0 C-1.17578125 1.984375 -1.17578125 1.984375 -3 4 C-5.48046875 4.390625 -5.48046875 4.390625 -8.1875 4.25 C-9.53908203 4.19585938 -9.53908203 4.19585938 -10.91796875 4.140625 C-11.60503906 4.09421875 -12.29210938 4.0478125 -13 4 C-10.84839889 0.77259834 -10.57842455 0.56187085 -7.0625 -0.25 C-6.37285156 -0.42015625 -5.68320313 -0.5903125 -4.97265625 -0.765625 C-3 -1 -3 -1 0 0 Z " fill="#EFF3E1" transform="translate(1604,787)"/>
<path d="M0 0 C0.66 0 1.32 0 2 0 C2 3.63 2 7.26 2 11 C1.01 11.495 1.01 11.495 0 12 C0 11.01 0 10.02 0 9 C-0.66 9 -1.32 9 -2 9 C-2.125 5.625 -2.125 5.625 -2 2 C-1.34 1.34 -0.68 0.68 0 0 Z " fill="#F3B9FD" transform="translate(1024,415)"/>
<path d="M0 0 C-0.99 1.485 -0.99 1.485 -2 3 C-3.8125 3.328125 -3.8125 3.328125 -6 3.25 C-6.79277344 3.22421875 -7.58554688 3.1984375 -8.40234375 3.171875 C-12.61475366 2.89315916 -16.80718826 2.49018258 -21 2 C-21 1.67 -21 1.34 -21 1 C-13.98441385 0.4011085 -7.04321257 -0.13810221 0 0 Z " fill="#282411" transform="translate(1533,723)"/>
<path d="M0 0 C2.45970225 3.68955337 2.57750613 6.71611123 2 11 C0.625 13.5 0.625 13.5 -1 15 C-1.66 15 -2.32 15 -3 15 C-2.01 10.05 -1.02 5.1 0 0 Z " fill="#EEEEE8" transform="translate(1576,588)"/>
<path d="M0 0 C1.32 0 2.64 0 4 0 C4.1953125 6.0546875 4.1953125 6.0546875 4 8 C3.34 8.66 2.68 9.32 2 10 C1.34 10 0.68 10 0 10 C0 6.7 0 3.4 0 0 Z " fill="#F3B4F1" transform="translate(928,288)"/>
<path d="M0 0 C2.4375 0.375 2.4375 0.375 5 1 C5.33 1.66 5.66 2.32 6 3 C5.34 3 4.68 3 4 3 C4.33 3.99 4.66 4.98 5 6 C0.99799622 7.60080151 -2.04556236 6.29279692 -6 5 C-6 4.67 -6 4.34 -6 4 C-4.02 3.67 -2.04 3.34 0 3 C0 2.01 0 1.02 0 0 Z " fill="#21241C" transform="translate(931,458)"/>
<path d="M0 0 C1.32 0 2.64 0 4 0 C4 0.66 4 1.32 4 2 C3.01 2.66 2.02 3.32 1 4 C0.26393501 7.56769552 0.26393501 7.56769552 0 11 C0.66 11 1.32 11 2 11 C2.66 12.32 3.32 13.64 4 15 C2.35 15 0.7 15 -1 15 C-1.02685412 12.68756208 -1.04632841 10.3750373 -1.0625 8.0625 C-1.07410156 6.77472656 -1.08570313 5.48695313 -1.09765625 4.16015625 C-1 1 -1 1 0 0 Z " fill="#E0B7E7" transform="translate(1022,413)"/>
<path d="M0 0 C3 1 3 1 4.75 3.3125 C6 6 6 6 5.6875 8.3125 C5.460625 8.869375 5.23375 9.42625 5 10 C0.46341463 6.97560976 0.46341463 6.97560976 -1 5 C-0.6875 2.3125 -0.6875 2.3125 0 0 Z " fill="#A5F081" transform="translate(1020,271)"/>
<path d="M0 0 C1.23593891 3.70781672 0.5678132 4.67510253 -0.9375 8.1875 C-1.31777344 9.08855469 -1.69804688 9.98960937 -2.08984375 10.91796875 C-2.54037109 11.94857422 -2.54037109 11.94857422 -3 13 C-3.66 13 -4.32 13 -5 13 C-4.25 5.375 -4.25 5.375 -2 2 C-1.34 2 -0.68 2 0 2 C0 1.34 0 0.68 0 0 Z " fill="#28221D" transform="translate(1285,667)"/>
<path d="M0 0 C0.66 0 1.32 0 2 0 C2.042721 1.66611905 2.04063832 3.33382885 2 5 C1 6 1 6 -2.16015625 6.09765625 C-4.09181641 6.08025391 -4.09181641 6.08025391 -6.0625 6.0625 C-7.35285156 6.05347656 -8.64320312 6.04445313 -9.97265625 6.03515625 C-10.97167969 6.02355469 -11.97070312 6.01195312 -13 6 C-13 5.67 -13 5.34 -13 5 C-10.03 5 -7.06 5 -4 5 C-4 4.01 -4 3.02 -4 2 C-2.68 1.67 -1.36 1.34 0 1 C0 0.67 0 0.34 0 0 Z " fill="#695B99" transform="translate(1044,433)"/>
<path d="M0 0 C2 1 2 1 3 3 C2.34 3 1.68 3 1 3 C1 3.99 1 4.98 1 6 C-2.08809695 7.76462683 -3.23312136 8 -7 8 C-7 8.66 -7 9.32 -7 10 C-8.32 10 -9.64 10 -11 10 C-11 9.34 -11 8.68 -11 8 C-7.71536341 5.81024227 -4.79303725 5.00193437 -1 4 C-0.67 2.68 -0.34 1.36 0 0 Z " fill="#BA92DF" transform="translate(1027,430)"/>
<path d="M0 0 C5.28 0.66 10.56 1.32 16 2 C15.01 2.33 14.02 2.66 13 3 C13 3.66 13 4.32 13 5 C10 6 10 6 7.51953125 5.00390625 C6.62621094 4.52824219 5.73289062 4.05257813 4.8125 3.5625 C3.91144531 3.08941406 3.01039062 2.61632812 2.08203125 2.12890625 C1.39496094 1.75636719 0.70789062 1.38382812 0 1 C0 0.67 0 0.34 0 0 Z " fill="#15230F" transform="translate(1032,322)"/>
<path d="M0 0 C0.33 0 0.66 0 1 0 C1 1.65 1 3.3 1 5 C3.97 5.495 3.97 5.495 7 6 C6.01 6.495 6.01 6.495 5 7 C5 7.66 5 8.32 5 9 C0.25 8.125 0.25 8.125 -2 7 C-1.42415568 4.61435923 -0.77772405 2.33317216 0 0 Z " fill="#45CD5B" transform="translate(987,291)"/>
<path d="M0 0 C0.33 0 0.66 0 1 0 C1 2.31 1 4.62 1 7 C-0.32 7.33 -1.64 7.66 -3 8 C-3 9.32 -3 10.64 -3 12 C-3.66 12 -4.32 12 -5 12 C-5.33 12.66 -5.66 13.32 -6 14 C-5.41892368 10.2397015 -4.34800504 7.46964968 -2.4375 4.1875 C-1.98246094 3.39730469 -1.52742187 2.60710937 -1.05859375 1.79296875 C-0.53458984 0.90544922 -0.53458984 0.90544922 0 0 Z " fill="#89DE78" transform="translate(999,270)"/>
<path d="M0 0 C0.66 0 1.32 0 2 0 C2 2.64 2 5.28 2 8 C1.34 8 0.68 8 0 8 C0 9.98 0 11.96 0 14 C-0.66 14 -1.32 14 -2 14 C-1.85795259 12.41632253 -1.71119847 10.83306682 -1.5625 9.25 C-1.48128906 8.36828125 -1.40007812 7.4865625 -1.31640625 6.578125 C-1.03761535 4.30649548 -0.61209423 2.20148177 0 0 Z " fill="#E5E6DF" transform="translate(1442,650)"/>
<path d="M0 0 C2 2 2 2 2.375 4.375 C1.89262388 7.75163282 0.55541504 8.84386856 -2 11 C-3 10 -3 10 -3.0625 6.9375 C-3.041875 5.968125 -3.02125 4.99875 -3 4 C-2.01 4 -1.02 4 0 4 C0 2.68 0 1.36 0 0 Z " fill="#F4B6DE" transform="translate(926,290)"/>
<path d="M0 0 C-2.29149113 2.7321625 -3.64386075 3.90028101 -7.125 4.875 C-8.07375 4.91625 -9.0225 4.9575 -10 5 C-10.66 4.34 -11.32 3.68 -12 3 C-10.5682384 2.30062798 -9.12932968 1.61587282 -7.6875 0.9375 C-6.48673828 0.36322266 -6.48673828 0.36322266 -5.26171875 -0.22265625 C-3 -1 -3 -1 0 0 Z " fill="#272521" transform="translate(905,783)"/>
<path d="M0 0 C0.66 0 1.32 0 2 0 C1.60804405 2.82208283 1.30181534 4.62273082 -0.5 6.875 C-2.5581765 9.79075004 -2.66340884 12.49945198 -3 16 C-3.33 16 -3.66 16 -4 16 C-4.54330269 9.34454208 -3.77304004 5.54165256 0 0 Z " fill="#373B2B" transform="translate(1584,760)"/>
<path d="M0 0 C0.66 0 1.32 0 2 0 C2.29341888 5.67276511 2.00559652 8.99067246 -1 14 C-1.33 14 -1.66 14 -2 14 C-1.03644647 4.58997722 -1.03644647 4.58997722 0 0 Z " fill="#DEE0DB" transform="translate(1430,702)"/>
<path d="M0 0 C1.32 0.33 2.64 0.66 4 1 C2.35 4.3 0.7 7.6 -1 11 C-1.33 11 -1.66 11 -2 11 C-2.19622241 6.78121808 -1.80230168 3.82989106 0 0 Z " fill="#84E67A" transform="translate(1056,348)"/>
<path d="M0 0 C0.66 0 1.32 0 2 0 C1.67 2.64 1.34 5.28 1 8 C-0.66666667 8 -2.33333333 8 -4 8 C-4.66 9.32 -5.32 10.64 -6 12 C-6 8.45176068 -5.32265612 7.58072903 -3 5 C-2.01 4.67 -1.02 4.34 0 4 C0 2.68 0 1.36 0 0 Z " fill="#6EE86B" transform="translate(996,278)"/>
<path d="M0 0 C8.19256018 -0.4726477 8.19256018 -0.4726477 11.5625 1.5 C12.036875 1.995 12.51125 2.49 13 3 C9.00439392 5.83022097 5.57262677 4.76210446 1 4 C1 3.67 1 3.34 1 3 C2.98 2.67 4.96 2.34 7 2 C4.69 1.67 2.38 1.34 0 1 C0 0.67 0 0.34 0 0 Z " fill="#D5D8CD" transform="translate(1591,753)"/>
<path d="M0 0 C0.33 0 0.66 0 1 0 C1 2.31 1 4.62 1 7 C0.34 7 -0.32 7 -1 7 C-1 8.98 -1 10.96 -1 13 C-1.66 13 -2.32 13 -3 13 C-2.88557539 11.39504433 -2.75805306 9.79101881 -2.625 8.1875 C-2.55539062 7.29417969 -2.48578125 6.40085937 -2.4140625 5.48046875 C-2 3 -2 3 0 0 Z " fill="#F7F7F7" transform="translate(879,635)"/>
<path d="M0 0 C0.66 0 1.32 0 2 0 C2 3.63 2 7.26 2 11 C1.67 10.34 1.34 9.68 1 9 C0.34 9 -0.32 9 -1 9 C-1.80967438 6.08517222 -2.21845993 4.53886783 -1.0625 1.6875 C-0.711875 1.130625 -0.36125 0.57375 0 0 Z " fill="#484232" transform="translate(1331,549)"/>
<path d="M0 0 C1.0326802 2.78823655 1.04509293 3.8677274 0.0625 6.75 C-0.288125 7.4925 -0.63875 8.235 -1 9 C1.31 9 3.62 9 6 9 C3 11 3 11 -0.1875 10.625 C-1.5796875 10.315625 -1.5796875 10.315625 -3 10 C-3 7.36 -3 4.72 -3 2 C-2.01 2 -1.02 2 0 2 C0 1.34 0 0.68 0 0 Z " fill="#E9A2B3" transform="translate(919,294)"/>
<path d="M0 0 C1.98 0 3.96 0 6 0 C6 0.66 6 1.32 6 2 C5.01 2.33 4.02 2.66 3 3 C2.67 5.31 2.34 7.62 2 10 C1.34 10 0.68 10 0 10 C0 6.7 0 3.4 0 0 Z " fill="#F98C2E" transform="translate(898,290)"/>
<path d="M0 0 C1.65 1.65 3.3 3.3 5 5 C4.34 6.32 3.68 7.64 3 9 C1.35 7.02 -0.3 5.04 -2 3 C-1.34 2.01 -0.68 1.02 0 0 Z " fill="#202416" transform="translate(1603,759)"/>
<path d="M0 0 C1.32 0 2.64 0 4 0 C4.33 0.99 4.66 1.98 5 3 C3.35 3.33 1.7 3.66 0 4 C0 5.32 0 6.64 0 8 C-0.66 8 -1.32 8 -2 8 C-2 6.02 -2 4.04 -2 2 C-1.34 2 -0.68 2 0 2 C0 1.34 0 0.68 0 0 Z " fill="#F4B0CE" transform="translate(916,304)"/>
<path d="M0 0 C1.65 0 3.3 0 5 0 C5.33 1.32 5.66 2.64 6 4 C4.02 4.33 2.04 4.66 0 5 C0 3.35 0 1.7 0 0 Z " fill="#3A3E30" transform="translate(1592,766)"/>
<path d="M0 0 C0.66 1.32 1.32 2.64 2 4 C2.66 4 3.32 4 4 4 C4 6.64 4 9.28 4 12 C1.95780294 10.30820672 1.08206694 9.36272334 0.48828125 6.73828125 C0.43027344 5.93777344 0.37226562 5.13726562 0.3125 4.3125 C0.24675781 3.50425781 0.18101562 2.69601562 0.11328125 1.86328125 C0.07589844 1.24839844 0.03851562 0.63351562 0 0 Z " fill="#3CD95F" transform="translate(1020,344)"/>
<path d="M0 0 C0.66 0.99 1.32 1.98 2 3 C1.411438 5.354248 0.74259349 7.68970915 0 10 C0 10.99 0 11.98 0 13 C-0.99 12.67 -1.98 12.34 -3 12 C-2.49202991 7.6822542 -1.80317221 3.96697886 0 0 Z " fill="#E6E8D8" transform="translate(1156,776)"/>
<path d="M0 0 C0 0.99 0 1.98 0 3 C-0.66 3 -1.32 3 -2 3 C-2 3.66 -2 4.32 -2 5 C-4.88229224 6.92152816 -7.90127153 8.46387819 -11 10 C-10.06409496 8.8944811 -9.12620142 7.79064547 -8.1875 6.6875 C-7.66542969 6.07261719 -7.14335938 5.45773437 -6.60546875 4.82421875 C-2.35974304 0 -2.35974304 0 0 0 Z " fill="#201B08" transform="translate(934,759)"/>
<path d="M0 0 C-0.33 0.66 -0.66 1.32 -1 2 C-3.72265625 2.6328125 -3.72265625 2.6328125 -7.0625 3.125 C-8.16722656 3.29257812 -9.27195312 3.46015625 -10.41015625 3.6328125 C-11.69212891 3.81457031 -11.69212891 3.81457031 -13 4 C-13 3.34 -13 2.68 -13 2 C-8.50343896 -0.24828052 -4.92127034 -0.16682272 0 0 Z " fill="#F6F9ED" transform="translate(1599,754)"/>
<path d="M0 0 C0 2.31 0 4.62 0 7 C-1.98 7.99 -1.98 7.99 -4 9 C-3.4140625 2.84765625 -3.4140625 2.84765625 -3 1 C-1 0 -1 0 0 0 Z " fill="#E7E8D6" transform="translate(876,653)"/>
<path d="M0 0 C0 0.66 0 1.32 0 2 C-4.76052962 3.97387813 -7.96488101 4.0070238 -13 3 C-13 2.67 -13 2.34 -13 2 C-4.57142857 -0.28571429 -4.57142857 -0.28571429 0 0 Z " fill="#DFE0DF" transform="translate(1096,460)"/>
<path d="M0 0 C0.33 0 0.66 0 1 0 C1 3.3 1 6.6 1 10 C-0.32 10 -1.64 10 -3 10 C-2.01 6.7 -1.02 3.4 0 0 Z " fill="#25210B" transform="translate(1311,598)"/>
<path d="M0 0 C0.33 0 0.66 0 1 0 C1 2.97 1 5.94 1 9 C0.01 9.33 -0.98 9.66 -2 10 C-2.1953125 3.9453125 -2.1953125 3.9453125 -2 2 C-1.34 1.34 -0.68 0.68 0 0 Z " fill="#F8F7F3" transform="translate(1455,601)"/>
<path d="M0 0 C3.96 0 7.92 0 12 0 C8.3558226 2.4294516 6.28758728 2.16179575 2 2 C2 2.66 2 3.32 2 4 C1.34 4 0.68 4 0 4 C0 2.68 0 1.36 0 0 Z " fill="#A284F0" transform="translate(1016,440)"/>
<path d="M0 0 C1.98 0.99 1.98 0.99 4 2 C3.34 5.3 2.68 8.6 2 12 C-0.13586678 8.79619983 -0.23132175 7.98060033 -0.125 4.3125 C-0.10695313 3.50425781 -0.08890625 2.69601562 -0.0703125 1.86328125 C-0.04710937 1.24839844 -0.02390625 0.63351562 0 0 Z " fill="#E693D3" transform="translate(972,392)"/>
<path d="M0 0 C3.77545388 1.09068668 6.47043472 1.9083091 9 5 C8.01 5.33 7.02 5.66 6 6 C6 5.34 6 4.68 6 4 C4.02 4 2.04 4 0 4 C0 2.68 0 1.36 0 0 Z " fill="#7CDE71" transform="translate(1034,324)"/>
<path d="M0 0 C0.66 0 1.32 0 2 0 C2.28571429 8.57142857 2.28571429 8.57142857 0 12 C0 10.68 0 9.36 0 8 C-0.66 8 -1.32 8 -2 8 C-2 7.34 -2 6.68 -2 6 C-1.34 6 -0.68 6 0 6 C0 4.02 0 2.04 0 0 Z " fill="#9CF275" transform="translate(1028,296)"/>
<path d="M0 0 C0.66 0 1.32 0 2 0 C2 1.65 2 3.3 2 5 C2.66 5.33 3.32 5.66 4 6 C3.01 6.33 2.02 6.66 1 7 C0.26676204 9.01508358 0.26676204 9.01508358 0 11 C-0.66 11 -1.32 11 -2 11 C-2 10.34 -2 9.68 -2 9 C-1.34 9 -0.68 9 0 9 C0 6.03 0 3.06 0 0 Z " fill="#F5ADB7" transform="translate(922,283)"/>
<path d="M0 0 C0.33 0 0.66 0 1 0 C1 2.31 1 4.62 1 7 C-0.98 7 -2.96 7 -5 7 C-5.33 5.35 -5.66 3.7 -6 2 C-5.67 2.99 -5.34 3.98 -5 5 C-3.35 4.67 -1.7 4.34 0 4 C0 2.68 0 1.36 0 0 Z " fill="#A9AD9E" transform="translate(1603,776)"/>
<path d="M0 0 C0.99 0.33 1.98 0.66 3 1 C3 1.66 3 2.32 3 3 C-0.465 4.485 -0.465 4.485 -4 6 C-4.66 5.34 -5.32 4.68 -6 4 C-4 2.66666667 -2 1.33333333 0 0 Z " fill="#F3F0D8" transform="translate(1583,699)"/>
<path d="M0 0 C0 3.63 0 7.26 0 11 C-0.66 11 -1.32 11 -2 11 C-2.33 7.7 -2.66 4.4 -3 1 C-1 0 -1 0 0 0 Z " fill="#FAFDED" transform="translate(1446,647)"/>
<path d="M0 0 C1.36741555 2.25221384 2.04066478 3.52557758 1.8125 6.1875 C1.544375 6.785625 1.27625 7.38375 1 8 C0.01 8.33 -0.98 8.66 -2 9 C-2.33 8.34 -2.66 7.68 -3 7 C-2.06421005 4.64018187 -1.06652192 2.30368736 0 0 Z " fill="#272018" transform="translate(844,571)"/>
<path d="M0 0 C0.33 0 0.66 0 1 0 C1 2.64 1 5.28 1 8 C0.01 8.33 -0.98 8.66 -2 9 C-2.6875 7.3125 -2.6875 7.3125 -3 5 C-1.625 2.25 -1.625 2.25 0 0 Z " fill="#E8E9E7" transform="translate(1279,504)"/>
<path d="M0 0 C2 2 2 2 2.125 5.125 C2.08375 6.07375 2.0425 7.0225 2 8 C0.68 7.34 -0.64 6.68 -2 6 C-2 4.35 -2 2.7 -2 1 C-1.34 0.67 -0.68 0.34 0 0 Z " fill="#B73275" transform="translate(962,396)"/>
<path d="M0 0 C2.64 0 5.28 0 8 0 C7 1.5 7 1.5 5 3 C2.28153765 3.27345479 -0.25677199 3.13491285 -3 3 C-2.01 2.67 -1.02 2.34 0 2 C0 1.34 0 0.68 0 0 Z " fill="#E4A28E" transform="translate(896,320)"/>
<path d="M0 0 C0.33 0 0.66 0 1 0 C1.144375 1.11375 1.28875 2.2275 1.4375 3.375 C1.78372035 6.82142047 1.78372035 6.82142047 3 9 C1.625 11.625 1.625 11.625 0 14 C-0.33 14 -0.66 14 -1 14 C-0.67 9.38 -0.34 4.76 0 0 Z " fill="#193716" transform="translate(1030,295)"/>
<path d="M0 0 C0 0.99 0 1.98 0 3 C-2.9063515 5.80255323 -3.78825048 6 -8 6 C-8.33 6.66 -8.66 7.32 -9 8 C-9.66 7.34 -10.32 6.68 -11 6 C-7.37 4.02 -3.74 2.04 0 0 Z " fill="#39362A" transform="translate(1129,779)"/>
<path d="M0 0 C0.66 0.33 1.32 0.66 2 1 C2 1.66 2 2.32 2 3 C2.99 3.33 3.98 3.66 5 4 C5 4.66 5 5.32 5 6 C3.35 6 1.7 6 0 6 C-0.66 4.68 -1.32 3.36 -2 2 C-1.34 2 -0.68 2 0 2 C0 1.34 0 0.68 0 0 Z " fill="#1D1E1A" transform="translate(1132,558)"/>
<path d="M0 0 C0.66 0.33 1.32 0.66 2 1 C0.68 3.64 -0.64 6.28 -2 9 C-2.66 8.01 -3.32 7.02 -4 6 C-3.25 3.375 -3.25 3.375 -2 1 C-1.34 0.67 -0.68 0.34 0 0 Z " fill="#1B1D1C" transform="translate(1257,549)"/>
<path d="M0 0 C0.33 0.66 0.66 1.32 1 2 C2.65 2 4.3 2 6 2 C6.33 3.65 6.66 5.3 7 7 C4.69 6.01 2.38 5.02 0 4 C0 2.68 0 1.36 0 0 Z " fill="#282410" transform="translate(1506,535)"/>
<path d="M0 0 C1.98 0 3.96 0 6 0 C5.67 1.32 5.34 2.64 5 4 C3.35 3.67 1.7 3.34 0 3 C0 2.01 0 1.02 0 0 Z " fill="#8272C6" transform="translate(1006,448)"/>
<path d="M0 0 C-1.98 0.99 -1.98 0.99 -4 2 C-4 3.32 -4 4.64 -4 6 C-4.99 5.67 -5.98 5.34 -7 5 C-7 3.35 -7 1.7 -7 0 C-3.86650268 -1.04449911 -3.01031744 -0.93423645 0 0 Z " fill="#D79587" transform="translate(924,282)"/>
<path d="M0 0 C0.66 0.33 1.32 0.66 2 1 C2 2.65 2 4.3 2 6 C0.35 6.66 -1.3 7.32 -3 8 C-1.125 2.25 -1.125 2.25 0 0 Z " fill="#242117" transform="translate(1638,642)"/>
<path d="M0 0 C0 2 0 2 -1.5 3.5625 C-1.995 4.036875 -2.49 4.51125 -3 5 C-3 5.33 -3 5.66 -3 6 C-4.65 6 -6.3 6 -8 6 C-3.375 0 -3.375 0 0 0 Z " fill="#9D89CA" transform="translate(1015,442)"/>
<path d="M0 0 C1.23556641 0.01740234 1.23556641 0.01740234 2.49609375 0.03515625 C3.32238281 0.04417969 4.14867187 0.05320312 5 0.0625 C5.63808594 0.07410156 6.27617188 0.08570313 6.93359375 0.09765625 C6.93359375 0.75765625 6.93359375 1.41765625 6.93359375 2.09765625 C0.30859375 3.34765625 0.30859375 3.34765625 -3.06640625 1.09765625 C-2.06640625 0.09765625 -2.06640625 0.09765625 0 0 Z " fill="#86F176" transform="translate(1035.06640625,319.90234375)"/>
<path d="M0 0 C1.0625 1.875 1.0625 1.875 2 4 C1.67 4.66 1.34 5.32 1 6 C0.34 6 -0.32 6 -1 6 C-1.33 6.99 -1.66 7.98 -2 9 C-2.6875 6.1875 -2.6875 6.1875 -3 3 C-1.5625 1.125 -1.5625 1.125 0 0 Z " fill="#EA9D89" transform="translate(916,283)"/>
<path d="M0 0 C0.33 0 0.66 0 1 0 C1.08090971 1.62418745 1.13914995 3.24951745 1.1875 4.875 C1.22230469 5.77992188 1.25710938 6.68484375 1.29296875 7.6171875 C1.19628906 8.40351562 1.09960938 9.18984375 1 10 C0.01 10.66 -0.98 11.32 -2 12 C-1.44687265 7.97007218 -0.8441938 3.97977076 0 0 Z " fill="#2D2815" transform="translate(1493,766)"/>
<path d="M0 0 C0.66 0.99 1.32 1.98 2 3 C1.34 3.66 0.68 4.32 0 5 C-0.64767793 7.57061311 -0.64767793 7.57061311 -1 10 C-1.99 10.33 -2.98 10.66 -4 11 C-3.5247412 9.35303396 -3.04468109 7.70745272 -2.5625 6.0625 C-2.29566406 5.14597656 -2.02882813 4.22945312 -1.75390625 3.28515625 C-1 1 -1 1 0 0 Z " fill="#2C2A20" transform="translate(1249,752)"/>
<path d="M0 0 C1.4606285 2.64738916 2 3.89448334 2 7 C0.35 7.33 -1.3 7.66 -3 8 C-1.125 2.25 -1.125 2.25 0 0 Z " fill="#EAEDD9" transform="translate(1236,599)"/>
<path d="M0 0 C1.98 0.99 1.98 0.99 4 2 C4 2.66 4 3.32 4 4 C4.99 4.33 5.98 4.66 7 5 C7 5.99 7 6.98 7 8 C6.34 8 5.68 8 5 8 C0 2.52380952 0 2.52380952 0 0 Z " fill="#F8F4D9" transform="translate(958,485)"/>
<path d="M0 0 C0.66 0 1.32 0 2 0 C1.625 2.4375 1.625 2.4375 1 5 C0.01 5.495 0.01 5.495 -1 6 C-1.66 6.99 -2.32 7.98 -3 9 C-2.25 2.25 -2.25 2.25 0 0 Z " fill="#DDDFCF" transform="translate(1486,465)"/>
<path d="M0 0 C-0.66 0 -1.32 0 -2 0 C-2 0.99 -2 1.98 -2 3 C-3.32 3 -4.64 3 -6 3 C-6 2.34 -6 1.68 -6 1 C-7.32 1.33 -8.64 1.66 -10 2 C-10 1.34 -10 0.68 -10 0 C-3.375 -1.125 -3.375 -1.125 0 0 Z " fill="#947ADB" transform="translate(1028,442)"/>
<path d="M0 0 C2 1.375 2 1.375 4 3 C4 3.66 4 4.32 4 5 C2.68 5.33 1.36 5.66 0 6 C-0.38218767 4.34385343 -0.71395102 2.67542976 -1 1 C-0.67 0.67 -0.34 0.34 0 0 Z " fill="#E0AEE6" transform="translate(977,397)"/>
<path d="M0 0 C0 1.98 0 3.96 0 6 C-0.66 6 -1.32 6 -2 6 C-2.33 7.32 -2.66 8.64 -3 10 C-3 7.03 -3 4.06 -3 1 C-1 0 -1 0 0 0 Z " fill="#FAA898" transform="translate(918,288)"/>
<path d="M0 0 C1.32 0 2.64 0 4 0 C4 1.65 4 3.3 4 5 C3.34 5 2.68 5 2 5 C1.34 5.99 0.68 6.98 0 8 C0 5.36 0 2.72 0 0 Z " fill="#F1975C" transform="translate(906,288)"/>
<path d="M0 0 C2.31 1.98 4.62 3.96 7 6 C6.01 6.33 5.02 6.66 4 7 C1.8125 5.8125 1.8125 5.8125 0 4 C0 2.68 0 1.36 0 0 Z " fill="#24231A" transform="translate(775,770)"/>
<path d="M0 0 C0.66 0.33 1.32 0.66 2 1 C0.52307692 5.67692308 0.52307692 5.67692308 -2.125 7.3125 C-3.053125 7.6528125 -3.053125 7.6528125 -4 8 C-2.87548273 5.0280615 -1.77706209 2.66559313 0 0 Z " fill="#342D22" transform="translate(952,730)"/>
<path d="M0 0 C0.33 0 0.66 0 1 0 C1 2.31 1 4.62 1 7 C0.01 7 -0.98 7 -2 7 C-2.125 4.625 -2.125 4.625 -2 2 C-1.34 1.34 -0.68 0.68 0 0 Z " fill="#F9FBF3" transform="translate(1435,689)"/>
<path d="M0 0 C1.32 0 2.64 0 4 0 C4 0.99 4 1.98 4 3 C2.35 3.66 0.7 4.32 -1 5 C-0.67 3.35 -0.34 1.7 0 0 Z " fill="#ECE9D0" transform="translate(860,541)"/>
<path d="M0 0 C0.66 0.33 1.32 0.66 2 1 C2 2.32 2 3.64 2 5 C0.35 5 -1.3 5 -3 5 C-3 4.01 -3 3.02 -3 2 C-2.01 2 -1.02 2 0 2 C0 1.34 0 0.68 0 0 Z " fill="#524BB0" transform="translate(1038,447)"/>
<path d="M0 0 C2.31 0 4.62 0 7 0 C5.63016497 3.16115776 5.0109362 3.9927092 2 6 C2.33 4.68 2.66 3.36 3 2 C2.01 1.34 1.02 0.68 0 0 Z " fill="#221A2C" transform="translate(1008,438)"/>
<path d="M0 0 C0.66 0.33 1.32 0.66 2 1 C-0.07143201 5.03384128 -1.96615872 6.92856799 -6 9 C-4.47291037 5.56404834 -2.40072955 2.88087546 0 0 Z " fill="#15B73B" transform="translate(971,326)"/>
<path d="M0 0 C0.33 0.66 0.66 1.32 1 2 C2.32 1.67 3.64 1.34 5 1 C4.67 1.99 4.34 2.98 4 4 C1.52260646 4.90837763 -0.33579484 5 -3 5 C-2.01 3.35 -1.02 1.7 0 0 Z " fill="#0CDE42" transform="translate(974,324)"/>
<path d="M0 0 C0.99 0.33 1.98 0.66 3 1 C1.68 3.31 0.36 5.62 -1 8 C-1.66 7.01 -2.32 6.02 -3 5 C-2.01 3.35 -1.02 1.7 0 0 Z " fill="#E6E0D2" transform="translate(850,556)"/>
<path d="M0 0 C2 2 2 2 2.125 5.125 C2.08375 6.07375 2.0425 7.0225 2 8 C1.01 8 0.02 8 -1 8 C-0.67 5.36 -0.34 2.72 0 0 Z " fill="#ECECEB" transform="translate(1470,528)"/>
<path d="M0 0 C0.33 1.32 0.66 2.64 1 4 C-1.64 4.66 -4.28 5.32 -7 6 C-2.25 1.125 -2.25 1.125 0 0 Z " fill="#E5E8E1" transform="translate(1053,476)"/>
<path d="M0 0 C1.98 0 3.96 0 6 0 C5.34 1.32 4.68 2.64 4 4 C2.68 4 1.36 4 0 4 C0 2.68 0 1.36 0 0 Z " fill="#E1B5EB" transform="translate(1001,433)"/>
<path d="M0 0 C0.66 0.99 1.32 1.98 2 3 C0.68 4.65 -0.64 6.3 -2 8 C-2.66 7.67 -3.32 7.34 -4 7 C-2.68 4.69 -1.36 2.38 0 0 Z " fill="#9FD981" transform="translate(1037,295)"/>
<path d="M0 0 C1.21236328 0.02707031 1.21236328 0.02707031 2.44921875 0.0546875 C3.37154297 0.08949219 3.37154297 0.08949219 4.3125 0.125 C4.3125 0.455 4.3125 0.785 4.3125 1.125 C3.219375 1.24875 2.12625 1.3725 1 1.5 C-2.76131802 1.87964801 -2.76131802 1.87964801 -5.6875 4.125 C-6.3475 3.465 -7.0075 2.805 -7.6875 2.125 C-4.48369983 -0.01086678 -3.66810033 -0.10632175 0 0 Z " fill="#D48327" transform="translate(899.6875,278.875)"/>
<path d="M0 0 C0.66 1.32 1.32 2.64 2 4 C1.34 4 0.68 4 0 4 C-0.33 5.65 -0.66 7.3 -1 9 C-1.66 9 -2.32 9 -3 9 C-2.01 6.03 -1.02 3.06 0 0 Z " fill="#E5E7DB" transform="translate(1192,696)"/>
<path d="M0 0 C0.99 0.33 1.98 0.66 3 1 C2.34 2.98 1.68 4.96 1 7 C0.34 7 -0.32 7 -1 7 C-0.67 4.69 -0.34 2.38 0 0 Z " fill="#EEEDD5" transform="translate(1294,634)"/>
<path d="M0 0 C0.33 0 0.66 0 1 0 C1.33 3.3 1.66 6.6 2 10 C1.01 9.67 0.02 9.34 -1 9 C-0.67 6.03 -0.34 3.06 0 0 Z " fill="#474132" transform="translate(824,628)"/>
<path d="M0 0 C0.33 0.99 0.66 1.98 1 3 C-0.4375 5.6875 -0.4375 5.6875 -2 8 C-2.66 7.01 -3.32 6.02 -4 5 C-2.68 3.35 -1.36 1.7 0 0 Z " fill="#E7EADB" transform="translate(803,502)"/>
<path d="M0 0 C0.33 0 0.66 0 1 0 C1.3125 2.8125 1.3125 2.8125 1 6 C-1.5 7.875 -1.5 7.875 -4 9 C-3.71125 8.443125 -3.4225 7.88625 -3.125 7.3125 C-1.9586747 4.91505355 -0.9660119 2.48403061 0 0 Z " fill="#151515" transform="translate(932,320)"/>
<path d="M0 0 C1.33332095 2.6666419 0.67102033 4.16680303 0 7 C-0.99 6.67 -1.98 6.34 -3 6 C-3 4.68 -3 3.36 -3 2 C-2.01 1.34 -1.02 0.68 0 0 Z " fill="#F0A9A1" transform="translate(907,310)"/>
<path d="M0 0 C3.0831351 1.19899698 6.06279492 2.47700477 9 4 C6.45297384 5.27351308 5.5717055 4.80191925 2.875 4.0625 C2.15054688 3.86785156 1.42609375 3.67320312 0.6796875 3.47265625 C0.12539063 3.31667969 -0.42890625 3.16070312 -1 3 C-0.67 2.01 -0.34 1.02 0 0 Z " fill="#124D16" transform="translate(1010,311)"/>
<path d="M0 0 C0.33 0 0.66 0 1 0 C1 2.31 1 4.62 1 7 C0.01 6.67 -0.98 6.34 -2 6 C-1.125 1.125 -1.125 1.125 0 0 Z " fill="#3A2A1C" transform="translate(885,309)"/>
<path d="M0 0 C0.66 0 1.32 0 2 0 C2 1.32 2 2.64 2 4 C1.34 4 0.68 4 0 4 C0 4.66 0 5.32 0 6 C-0.66 6 -1.32 6 -2 6 C-1.125 1.125 -1.125 1.125 0 0 Z " fill="#FC995B" transform="translate(904,296)"/>
<path d="M0 0 C1.32 0.33 2.64 0.66 4 1 C3.34 2.65 2.68 4.3 2 6 C0.68 5.34 -0.64 4.68 -2 4 C-1.34 4 -0.68 4 0 4 C0 2.68 0 1.36 0 0 Z " fill="#F3904E" transform="translate(900,296)"/>
</svg>
